0
SECTION
2
HEADER
9
$INSUNITS
70
4
9
$ACADVER
1
AC1014
9
$HANDSEED
5
FFFF
0
ENDSEC
0
SECTION
2
TABLES
0
TABLE
2
VPORT
5
8
100
AcDbSymbolTable
0
ENDTAB
0
TABLE
2
LTYPE
5
5
100
AcDbSymbolTable
0
LTYPE
5
14
100
AcDbSymbolTableRecord
100
AcDbLinetypeTableRecord
2
BYBLOCK
70
0
0
LTYPE
5
15
100
AcDbSymbolTableRecord
100
AcDbLinetypeTableRecord
2
BYLAYER
70
0
0
LTYPE
5
16
100
AcDbSymbolTableRecord
100
AcDbLinetypeTableRecord
2
DASHED
70
0
3
Dashed __ __ __ __ __ __ __ __ __ __ __ __ __ _
72
65
73
2
40
0.75
49
0.5
74
0
49
-0.25
74
0
0
ENDTAB
0
TABLE
2
LAYER
5
2
100
AcDbSymbolTable
70
3
0
LAYER
5
50
100
AcDbSymbolTableRecord
100
AcDbLayerTableRecord
2
1
70
0
62
7
6
DASHED
0
LAYER
5
51
100
AcDbSymbolTableRecord
100
AcDbLayerTableRecord
2
0
70
0
62
7
6
CONTINUOUS
0
ENDTAB
0
TABLE
2
STYLE
5
3
100
AcDbSymbolTable
70
1
0
STYLE
5
11
100
AcDbSymbolTableRecord
100
AcDbTextStyleTableRecord
2
STANDARD
70
0
0
ENDTAB
0
TABLE
2
VIEW
5
6
100
AcDbSymbolTable
70
0
0
ENDTAB
0
TABLE
2
UCS
5
7
100
AcDbSymbolTable
70
0
0
ENDTAB
0
TABLE
2
APPID
5
9
100
AcDbSymbolTable
70
2
0
APPID
5
12
100
AcDbSymbolTableRecord
100
AcDbRegAppTableRecord
2
ACAD
70
0
0
ENDTAB
0
TABLE
2
DIMSTYLE
5
A
100
AcDbSymbolTable
70
1
0
ENDTAB
0
TABLE
2
BLOCK_RECORD
5
1
100
AcDbSymbolTable
70
1
0
BLOCK_RECORD
5
1F
100
AcDbSymbolTableRecord
100
AcDbBlockTableRecord
2
*MODEL_SPACE
0
BLOCK_RECORD
5
1B
100
AcDbSymbolTableRecord
100
AcDbBlockTableRecord
2
*PAPER_SPACE
0
ENDTAB
0
ENDSEC
0
SECTION
2
BLOCKS
0
BLOCK
5
20
100
AcDbEntity
100
AcDbBlockBegin
2
*MODEL_SPACE
0
ENDBLK
5
21
100
AcDbEntity
100
AcDbBlockEnd
0
BLOCK
5
1C
100
AcDbEntity
100
AcDbBlockBegin
2
*PAPER_SPACE
0
ENDBLK
5
1D
100
AcDbEntity
100
AcDbBlockEnd
0
ENDSEC
0
SECTION
2
ENTITIES
0
POINT
5
100
100
AcDbEntity
8
0
100
AcDbPoint
10
0
20
0
30
0
0
POINT
5
101
100
AcDbEntity
8
0
100
AcDbPoint
10
19.575000000000003
20
-19.575000000000003
30
0
0
POINT
5
102
100
AcDbEntity
8
0
100
AcDbPoint
10
57.674999999999997
20
-8.1449999999999996
30
0
0
POINT
5
103
100
AcDbEntity
8
0
100
AcDbPoint
10
94.72499999999998
20
-13.860000000000001
30
0
0
POINT
5
104
100
AcDbEntity
8
0
100
AcDbPoint
10
75.674999999999997
20
-11.955000000000002
30
0
0
POINT
5
105
100
AcDbEntity
8
0
100
AcDbPoint
10
38.625
20
-17.670000000000002
30
0
0
POINT
5
106
100
AcDbEntity
8
0
100
AcDbPoint
10
242.32500000000002
20
-8.1449999999999996
30
0
0
POINT
5
107
100
AcDbEntity
8
0
100
AcDbPoint
10
280.42500000000001
20
-19.575000000000003
30
0
0
POINT
5
108
100
AcDbEntity
8
0
100
AcDbPoint
10
205.27500000000003
20
-13.860000000000001
30
0
0
POINT
5
109
100
AcDbEntity
8
0
100
AcDbPoint
10
261.375
20
-17.670000000000002
30
0
0
POINT
5
110
100
AcDbEntity
8
0
100
AcDbPoint
10
224.32500000000002
20
-11.955000000000002
30
0
0
POINT
5
111
100
AcDbEntity
8
0
100
AcDbPoint
10
300
20
0
30
0
0
LWPOLYLINE
5
112
100
AcDbEntity
8
0
100
AcDbPolyline
90
8
70
1
43
0.0
10
97.77500000000002
20
-35.409999999999997
10
97.77500000000002
20
-48.410000000000004
42
0.41421356237309503
10
98.275000000000006
20
-48.909999999999997
10
111.27500000000001
20
-48.909999999999997
42
0.41421356237309503
10
111.77500000000002
20
-48.410000000000004
10
111.77500000000002
20
-35.409999999999997
42
0.41421356237309503
10
111.27500000000001
20
-34.909999999999997
10
98.275000000000006
20
-34.909999999999997
42
0.41421356237309503
0
LWPOLYLINE
5
113
100
AcDbEntity
8
0
100
AcDbPolyline
90
8
70
1
43
0.0
10
111.77500000000002
20
-54.460000000000008
42
0.41421356237309503
10
111.27500000000001
20
-53.960000000000008
10
98.275000000000006
20
-53.960000000000008
42
0.41421356237309503
10
97.77500000000002
20
-54.460000000000008
10
97.77500000000002
20
-67.459999999999994
42
0.41421356237309503
10
98.275000000000006
20
-67.959999999999994
10
111.27500000000001
20
-67.959999999999994
42
0.41421356237309503
10
111.77500000000002
20
-67.459999999999994
0
LWPOLYLINE
5
114
100
AcDbEntity
8
0
100
AcDbPolyline
90
58
70
1
43
0.0
10
68.556567639548504
20
-88.749018571971845
42
0.20070626050677562
10
70.528284381373993
20
-89.962500000000006
10
109.8625152911592
20
-96.130728315823148
42
-0.092272995847541825
10
110.8977478256792
20
-96.496431990913138
10
123.15334519202284
20
-103.57220446037168
42
0.41421356237309503
10
124.51937059649991
20
-103.20617905917204
10
127.56937060567665
20
-97.923424103277412
10
137.11937061485344
20
-81.382338947382777
42
0.41421356237309503
10
136.7533452136538
20
-80.016313542905721
10
115.27499999508387
20
-67.615785095027675
42
-0.2679491919241041
10
113.77500000000001
20
-65.017708886512708
10
113.77500000000001
20
-54.460000000000008
10
113.77500000000001
20
-48.410000000000004
10
113.77500000000001
20
-35.409999999999997
10
113.77500000000001
20
-29.359999999999999
10
113.77500000000001
20
-16.359999999999999
10
113.77500000000001
20
-14.860000000000003
42
0.41421356237309437
10
112.77500000000002
20
-13.860000000000001
10
107.72499999999999
20
-13.860000000000001
10
95.224999999999994
20
-13.859999999999996
42
-0.41421356237306772
10
94.72499999999998
20
-13.360000000000001
10
94.72499999999998
20
-12.455000000000002
42
0.414213562373069
10
94.22499999999998
20
-11.955000000000002
10
88.674999999999997
20
-11.955000000000002
10
76.174999999999997
20
-11.955000000000005
42
-0.41421356237309764
10
75.674999999999997
20
-11.455000000000002
10
75.674999999999997
20
-2.9299999999999993
42
0.41421356237309503
10
75.174999999999997
20
-2.4300000000000015
10
73.174999999999997
20
-2.430000000000001
10
60.174999999999997
20
-2.430000000000001
10
58.174999999999997
20
-2.430000000000001
42
0.41421356237309503
10
57.674999999999997
20
-2.9299999999999993
10
57.674999999999997
20
-7.6449999999999996
42
-0.41421356237309437
10
57.175000000000004
20
-8.1449999999999996
10
44.674999999999997
20
-8.1449999999999996
10
39.125
20
-8.1450000000000014
42
0.4142135623730957
10
38.625
20
-8.6449999999999996
10
38.625
20
-17.170000000000002
42
-0.41421356237310025
10
38.125
20
-17.670000000000002
10
25.624999999999996
20
-17.670000000000002
10
20.075000000000003
20
-17.670000000000002
42
0.41421356237309115
10
19.575000000000003
20
-18.170000000000005
10
19.575000000000003
20
-19.075000000000003
42
-0.41421356237309243
10
19.075000000000003
20
-19.575000000000003
10
6.575000000000002
20
-19.575000000000003
10
3.0249999999999999
20
-19.575000000000003
10
1.5250000000000004
20
-19.575000000000003
42
0.41421356237309537
10
0.52500000000000002
20
-20.575000000000003
10
0.52499999999999991
20
-22.074999999999999
10
0.52499999999999991
20
-35.075000000000003
10
0.52499999999999991
20
-41.125
10
0.52499999999999991
20
-54.125000000000007
10
0.52499999999999991
20
-60.174999999999997
10
0.52499999999999991
20
-74.674999999999997
42
0.41421356237309687
10
1.5249999999999997
20
-75.674999999999997
10
16.024999999999999
20
-75.674999999999997
10
57.625842533929884
20
-75.674999999999983
42
-0.2414989526334882
10
60.062326746151555
20
-76.924701544423172
0
LWPOLYLINE
5
115
100
AcDbEntity
8
0
100
AcDbPolyline
90
8
70
1
43
0.0
10
92.724999999999994
20
-52.555000000000007
42
0.41421356237309503
10
92.224999999999994
20
-52.055000000000007
10
79.224999999999994
20
-52.055000000000007
42
0.41421356237309503
10
78.724999999999994
20
-52.555000000000007
10
78.724999999999994
20
-65.555000000000007
42
0.41421356237309503
10
79.224999999999994
20
-66.055000000000007
10
92.224999999999994
20
-66.055000000000007
42
0.41421356237309503
10
92.724999999999994
20
-65.555000000000007
0
LWPOLYLINE
5
116
100
AcDbEntity
8
0
100
AcDbPolyline
90
8
70
1
43
0.0
10
92.224999999999994
20
-47.00500000000001
42
0.41421356237309503
10
92.724999999999994
20
-46.505000000000003
10
92.724999999999994
20
-33.505000000000003
42
0.41421356237309503
10
92.224999999999994
20
-33.005000000000003
10
79.224999999999994
20
-33.005000000000003
42
0.41421356237309503
10
78.724999999999994
20
-33.505000000000003
10
78.724999999999994
20
-46.505000000000003
42
0.41421356237309503
10
79.224999999999994
20
-47.00500000000001
0
LWPOLYLINE
5
117
100
AcDbEntity
8
0
100
AcDbPolyline
90
8
70
1
43
0.0
10
73.174999999999997
20
-56.530000000000001
42
0.41421356237309503
10
73.674999999999997
20
-56.030000000000008
10
73.674999999999997
20
-43.030000000000001
42
0.41421356237309503
10
73.174999999999997
20
-42.530000000000001
10
60.174999999999997
20
-42.530000000000001
42
0.41421356237309503
10
59.675000000000004
20
-43.030000000000001
10
59.675000000000004
20
-56.030000000000008
42
0.41421356237309503
10
60.174999999999997
20
-56.530000000000001
0
LINE
5
118
100
AcDbEntity
8
1
100
AcDbLine
10
92.224999999999994
20
-52.554999999999993
30
0
11
92.224999999999994
21
-46.505000000000003
31
0
0
LWPOLYLINE
5
119
100
AcDbEntity
8
0
100
AcDbPolyline
90
8
70
1
43
0.0
10
2.5249999999999999
20
-73.174999999999997
42
0.41421356237309503
10
3.0249999999999999
20
-73.674999999999997
10
16.024999999999999
20
-73.674999999999997
42
0.41421356237309503
10
16.524999999999999
20
-73.174999999999997
10
16.524999999999999
20
-60.174999999999997
42
0.41421356237309503
10
16.024999999999999
20
-59.675000000000004
10
3.0249999999999999
20
-59.675000000000004
42
0.41421356237309503
10
2.5249999999999999
20
-60.174999999999997
0
LWPOLYLINE
5
120
100
AcDbEntity
8
0
100
AcDbPolyline
90
8
70
1
43
0.0
10
54.125000000000007
20
-24.145000000000003
42
0.41421356237309503
10
54.625
20
-23.645
10
54.625
20
-10.645
42
0.41421356237309503
10
54.125000000000007
20
-10.145
10
41.125
20
-10.145
42
0.41421356237309503
10
40.625
20
-10.645
10
40.625
20
-23.645
42
0.41421356237309503
10
41.125
20
-24.145000000000003
0
LWPOLYLINE
5
121
100
AcDbEntity
8
0
100
AcDbPolyline
90
8
70
1
43
0.0
10
22.074999999999999
20
-33.670000000000002
10
35.075000000000003
20
-33.670000000000002
42
0.41421356237309503
10
35.575000000000003
20
-33.170000000000002
10
35.575000000000003
20
-20.170000000000002
42
0.41421356237309503
10
35.075000000000003
20
-19.670000000000002
10
22.074999999999999
20
-19.670000000000002
42
0.41421356237309503
10
21.575000000000003
20
-20.170000000000002
10
21.575000000000003
20
-33.170000000000002
42
0.41421356237309503
0
LWPOLYLINE
5
122
100
AcDbEntity
8
0
100
AcDbPolyline
90
8
70
1
43
0.0
10
111.77500000000002
20
-16.359999999999999
42
0.41421356237309503
10
111.27500000000001
20
-15.860000000000001
10
98.275000000000006
20
-15.860000000000001
42
0.41421356237309503
10
97.77500000000002
20
-16.359999999999999
10
97.77500000000002
20
-29.359999999999999
42
0.41421356237309503
10
98.275000000000006
20
-29.860000000000003
10
111.27500000000001
20
-29.860000000000003
42
0.41421356237309503
10
111.77500000000002
20
-29.359999999999999
0
LWPOLYLINE
5
123
100
AcDbEntity
8
0
100
AcDbPolyline
90
8
70
1
43
0.0
10
73.174999999999997
20
-18.43
42
0.41421356237309503
10
73.674999999999997
20
-17.93
10
73.674999999999997
20
-4.9300000000000015
42
0.41421356237309503
10
73.174999999999997
20
-4.4300000000000015
10
60.174999999999997
20
-4.4300000000000015
42
0.41421356237309503
10
59.675000000000004
20
-4.9300000000000015
10
59.675000000000004
20
-17.93
42
0.41421356237309503
10
60.174999999999997
20
-18.43
0
LWPOLYLINE
5
124
100
AcDbEntity
8
0
100
AcDbPolyline
90
8
70
1
43
0.0
10
40.625
20
-42.695
42
0.41421356237309503
10
41.125
20
-43.195000000000007
10
54.125000000000007
20
-43.195000000000007
42
0.41421356237309503
10
54.625
20
-42.695
10
54.625
20
-29.695
42
0.41421356237309503
10
54.125000000000007
20
-29.195
10
41.125
20
-29.195
42
0.41421356237309503
10
40.625
20
-29.695
0
LWPOLYLINE
5
125
100
AcDbEntity
8
0
100
AcDbPolyline
90
8
70
1
43
0.0
10
120.89597690000002
20
-78.48208120000001
42
0.41421356237310469
10
120.2129642
20
-78.665093900000016
10
113.7129642
20
-89.923424099999991
42
0.41421356237310408
10
113.89597690000002
20
-90.606436799999997
10
125.15430710000001
20
-97.106436800000012
42
0.41421356237308982
10
125.83731979999999
20
-96.923424100000005
10
132.33731979999999
20
-85.665093900000002
42
0.41421356237309503
10
132.15430710000001
20
-84.98208120000001
0
LWPOLYLINE
5
126
100
AcDbEntity
8
0
100
AcDbPolyline
90
8
70
1
43
0.0
10
59.675000000000004
20
-23.98
10
59.675000000000004
20
-36.980000000000004
42
0.41421356237309503
10
60.174999999999997
20
-37.480000000000004
10
73.174999999999997
20
-37.480000000000004
42
0.41421356237309503
10
73.674999999999997
20
-36.980000000000004
10
73.674999999999997
20
-23.98
42
0.41421356237309503
10
73.174999999999997
20
-23.480000000000004
10
60.174999999999997
20
-23.480000000000004
42
0.41421356237309503
0
LWPOLYLINE
5
127
100
AcDbEntity
8
0
100
AcDbPolyline
90
8
70
1
43
0.0
10
40.625
20
-61.745000000000005
42
0.41421356237309503
10
41.125
20
-62.244999999999997
10
54.125000000000007
20
-62.244999999999997
42
0.41421356237309503
10
54.625
20
-61.745000000000005
10
54.625
20
-48.745000000000005
42
0.41421356237309503
10
54.125000000000007
20
-48.245000000000005
10
41.125
20
-48.245000000000005
42
0.41421356237309503
10
40.625
20
-48.745000000000005
0
LINE
5
128
100
AcDbEntity
8
1
100
AcDbLine
10
22.074999999999999
20
-35.075000000000003
30
0
11
22.074999999999999
21
-41.125
31
0
0
LINE
5
129
100
AcDbEntity
8
1
100
AcDbLine
10
22.074999999999999
20
-41.125
30
0
11
16.024999999999999
21
-41.125
31
0
0
LWPOLYLINE
5
130
100
AcDbEntity
8
0
100
AcDbPolyline
90
8
70
1
43
0.0
10
109.32125090000001
20
-79.693870800000013
42
0.41421356237307866
10
108.96769750000003
20
-79.081498400000001
10
96.41066170000002
20
-75.716850799999989
42
0.41421356237310641
10
95.798289299999993
20
-76.070404200000013
10
92.433641699999995
20
-88.627440000000007
42
0.41421356237308499
10
92.787195100000005
20
-89.239812400000019
10
105.34423090000003
20
-92.604460000000003
42
0.41421356237308227
10
105.95660330000001
20
-92.250906599999993
0
LWPOLYLINE
5
131
100
AcDbEntity
8
0
100
AcDbPolyline
90
8
70
1
43
0.0
10
22.074999999999999
20
-57.77000000000001
10
35.075000000000003
20
-57.77000000000001
42
-0.41421356237309503
10
35.575000000000003
20
-58.27000000000001
10
35.575000000000003
20
-71.269999999999996
42
-0.41421356237309503
10
35.075000000000003
20
-71.769999999999996
10
22.074999999999999
20
-71.769999999999996
42
-0.41421356237309503
10
21.575000000000003
20
-71.269999999999996
10
21.575000000000003
20
-58.27000000000001
42
-0.41421356237309503
0
LWPOLYLINE
5
132
100
AcDbEntity
8
0
100
AcDbPolyline
90
8
70
1
43
0.0
10
35.575000000000003
20
-39.219999999999999
42
0.41421356237309503
10
35.075000000000003
20
-38.719999999999999
10
22.074999999999999
20
-38.719999999999999
42
0.41421356237309503
10
21.575000000000003
20
-39.219999999999999
10
21.575000000000003
20
-52.220000000000006
42
0.41421356237309503
10
22.074999999999999
20
-52.719999999999999
10
35.075000000000003
20
-52.719999999999999
42
0.41421356237309503
10
35.575000000000003
20
-52.220000000000006
0
LWPOLYLINE
5
133
100
AcDbEntity
8
0
100
AcDbPolyline
90
8
70
1
43
0.0
10
85.557500000000019
20
-87.962500000000006
42
0.41421356237309503
10
86.057500000000005
20
-87.46250000000002
10
86.057500000000005
20
-74.462500000000006
42
0.41421356237309503
10
85.557500000000019
20
-73.962500000000006
10
72.557500000000005
20
-73.962500000000006
42
0.41421356237309503
10
72.057500000000005
20
-74.462500000000006
10
72.057500000000005
20
-87.46250000000002
42
0.41421356237309503
10
72.557500000000005
20
-87.962500000000006
0
LWPOLYLINE
5
134
100
AcDbEntity
8
0
100
AcDbPolyline
90
8
70
1
43
0.0
10
3.0249999999999999
20
-40.625
42
0.41421356237309503
10
2.5249999999999999
20
-41.125
10
2.5249999999999999
20
-54.125000000000007
42
0.41421356237309503
10
3.0249999999999999
20
-54.625
10
16.024999999999999
20
-54.625
42
0.41421356237309503
10
16.524999999999999
20
-54.125000000000007
10
16.524999999999999
20
-41.125
42
0.41421356237309503
10
16.024999999999999
20
-40.625
0
LWPOLYLINE
5
135
100
AcDbEntity
8
0
100
AcDbPolyline
90
8
70
1
43
0.0
10
3.0249999999999999
20
-21.575000000000003
42
0.41421356237309503
10
2.5249999999999999
20
-22.074999999999999
10
2.5249999999999999
20
-35.075000000000003
42
0.41421356237309503
10
3.0249999999999999
20
-35.575000000000003
10
16.024999999999999
20
-35.575000000000003
42
0.41421356237309503
10
16.524999999999999
20
-35.075000000000003
10
16.524999999999999
20
-22.074999999999999
42
0.41421356237309503
10
16.024999999999999
20
-21.575000000000003
0
CIRCLE
5
136
100
AcDbEntity
8
0
100
AcDbCircle
10
66.675000000000011
20
-65.625
30
0
40
0.99999999999999645
210
0
220
0
230
1
0
LWPOLYLINE
5
137
100
AcDbEntity
8
0
100
AcDbPolyline
90
8
70
1
43
0.0
10
79.224999999999994
20
-13.955000000000002
42
0.41421356237309503
10
78.724999999999994
20
-14.455
10
78.724999999999994
20
-27.454999999999998
42
0.41421356237309503
10
79.224999999999994
20
-27.955000000000002
10
92.224999999999994
20
-27.955000000000002
42
0.41421356237309503
10
92.724999999999994
20
-27.454999999999998
10
92.724999999999994
20
-14.455
42
0.41421356237309503
10
92.224999999999994
20
-13.955000000000002
0
CIRCLE
5
138
100
AcDbEntity
8
0
100
AcDbCircle
10
95.25
20
-49.529999999999994
30
0
40
1
210
0
220
0
230
1
0
LINE
5
139
100
AcDbEntity
8
1
100
AcDbLine
10
16.024999999999999
20
-35.075000000000003
30
0
11
22.074999999999999
21
-35.075000000000003
31
0
0
LINE
5
140
100
AcDbEntity
8
0
100
AcDbLine
10
132.15430710000001
20
-84.98208120000001
30
0
11
120.89597690000002
21
-78.48208120000001
31
0
0
LINE
5
141
100
AcDbEntity
8
1
100
AcDbLine
10
98.275000000000006
20
-33.504999999999995
30
0
11
92.224999999999994
21
-33.504999999999995
31
0
0
LINE
5
142
100
AcDbEntity
8
0
100
AcDbLine
10
2.5249999999999999
20
-41.125
30
0
11
2.5249999999999999
21
-54.125000000000007
31
0
0
LINE
5
143
100
AcDbEntity
8
1
100
AcDbLine
10
98.275000000000006
20
-52.554999999999993
30
0
11
92.224999999999994
21
-52.554999999999993
31
0
0
LINE
5
144
100
AcDbEntity
8
1
100
AcDbLine
10
92.224999999999994
20
-27.454999999999998
30
0
11
98.275000000000006
21
-27.454999999999998
31
0
0
LINE
5
145
100
AcDbEntity
8
0
100
AcDbLine
10
22.074999999999999
20
-71.769999999999996
30
0
11
35.075000000000003
21
-71.769999999999996
31
0
0
CIRCLE
5
146
100
AcDbEntity
8
0
100
AcDbCircle
10
19.050000000000001
20
-38.100000000000001
30
0
40
1
210
0
220
0
230
1
0
LINE
5
147
100
AcDbEntity
8
1
100
AcDbLine
10
22.074999999999999
20
-54.125000000000007
30
0
11
22.074999999999999
21
-60.174999999999997
31
0
0
LINE
5
148
100
AcDbEntity
8
1
100
AcDbLine
10
16.024999999999999
20
-41.125
30
0
11
16.024999999999999
21
-35.075000000000003
31
0
0
LINE
5
149
100
AcDbEntity
8
1
100
AcDbLine
10
22.074999999999999
20
-60.174999999999997
30
0
11
16.024999999999999
21
-60.174999999999997
31
0
0
LINE
5
150
100
AcDbEntity
8
1
100
AcDbLine
10
16.024999999999999
20
-60.174999999999997
30
0
11
16.024999999999999
21
-54.125000000000007
31
0
0
LINE
5
151
100
AcDbEntity
8
0
100
AcDbLine
10
2.5249999999999999
20
-60.174999999999997
30
0
11
2.5249999999999999
21
-73.174999999999997
31
0
0
CIRCLE
5
152
100
AcDbEntity
8
0
100
AcDbCircle
10
19.050000000000001
20
-57.150000000000006
30
0
40
1
210
0
220
0
230
1
0
LINE
5
153
100
AcDbEntity
8
0
100
AcDbLine
10
41.125
20
-62.244999999999997
30
0
11
54.125000000000007
21
-62.244999999999997
31
0
0
LINE
5
154
100
AcDbEntity
8
0
100
AcDbLine
10
72.057500000000005
20
-74.462500000000006
30
0
11
72.057500000000005
21
-87.46250000000002
31
0
0
LINE
5
155
100
AcDbEntity
8
1
100
AcDbLine
10
16.024999999999999
20
-54.125000000000007
30
0
11
22.074999999999999
21
-54.125000000000007
31
0
0
LINE
5
156
100
AcDbEntity
8
1
100
AcDbLine
10
66.675000000000011
20
-47.625
30
0
11
66.675000000000011
21
-65.625
31
0
0
LINE
5
157
100
AcDbEntity
8
1
100
AcDbLine
10
98.275000000000006
20
-27.454999999999998
30
0
11
98.275000000000006
21
-33.504999999999995
31
0
0
LINE
5
158
100
AcDbEntity
8
1
100
AcDbLine
10
98.275000000000006
20
-46.505000000000003
30
0
11
98.275000000000006
21
-52.554999999999993
31
0
0
LINE
5
159
100
AcDbEntity
8
1
100
AcDbLine
10
92.224999999999994
20
-33.504999999999995
30
0
11
92.224999999999994
21
-27.454999999999998
31
0
0
LINE
5
160
100
AcDbEntity
8
1
100
AcDbLine
10
92.224999999999994
20
-46.505000000000003
30
0
11
98.275000000000006
21
-46.505000000000003
31
0
0
CIRCLE
5
161
100
AcDbEntity
8
0
100
AcDbCircle
10
95.25
20
-30.479999999999997
30
0
40
1
210
0
220
0
230
1
0
LINE
5
162
100
AcDbEntity
8
1
100
AcDbLine
10
150
20
0
30
0
11
150
21
-125
31
0
0
LWPOLYLINE
5
163
100
AcDbEntity
8
0
100
AcDbPolyline
90
8
70
1
43
0.0
10
179.78703580000001
20
-78.665093900000016
10
186.28703580000001
20
-89.923424099999991
42
-0.41421356237310408
10
186.10402309999998
20
-90.606436799999997
10
174.84569289999996
20
-97.106436799999969
42
-0.41421356237309365
10
174.16268020000001
20
-96.923424100000005
10
167.66268019999998
20
-85.665093899999988
42
-0.41421356237309886
10
167.84569290000002
20
-84.98208120000001
10
179.10402309999998
20
-78.48208120000001
42
-0.41421356237311374
0
LINE
5
164
100
AcDbEntity
8
0
100
AcDbLine
10
167.84569290000002
20
-84.98208120000001
30
0
11
179.10402309999998
21
-78.48208120000001
31
0
0
LWPOLYLINE
5
165
100
AcDbEntity
8
0
100
AcDbPolyline
90
8
70
1
43
0.0
10
190.6787491
20
-79.693870800000013
10
194.04339669999999
20
-92.250906599999993
42
0.41421356237307227
10
194.65576909999996
20
-92.604460000000003
10
207.21280489999998
20
-89.239812400000019
42
0.41421356237308227
10
207.56635829999999
20
-88.627440000000007
10
204.20171070000004
20
-76.070404200000013
42
0.41421356237310913
10
203.58933829999998
20
-75.716850799999989
10
191.03230249999996
20
-79.081498400000001
42
0.41421356237307128
0
LWPOLYLINE
5
166
100
AcDbEntity
8
0
100
AcDbPolyline
90
58
70
1
43
0.0
10
162.88062938514656
20
-81.382338947382777
10
172.43062939432335
20
-97.923424103277412
10
175.48062940350007
20
-103.20617905917204
42
0.41421356237309953
10
176.84665480797716
20
-103.57220446037168
10
189.10225217432077
20
-96.496431990913152
42
-0.092272995847544517
10
190.13748470884082
20
-96.130728315823134
10
229.47171561862601
20
-89.962500000000006
42
0.20070626050677562
10
231.44343236045148
20
-88.749018571971845
10
239.93767325384846
20
-76.924701544423172
42
-0.24149895263348772
10
242.3741574660701
20
-75.674999999999997
10
283.97500000000002
20
-75.674999999999997
10
298.47500000000002
20
-75.674999999999997
42
0.41421356237309503
10
299.47499999999997
20
-74.674999999999997
10
299.47499999999997
20
-60.174999999999997
10
299.47499999999997
20
-54.125000000000007
10
299.47499999999997
20
-41.125
10
299.47499999999997
20
-35.075000000000003
10
299.47499999999997
20
-22.074999999999999
10
299.47499999999997
20
-20.575000000000003
42
0.41421356237309503
10
298.47500000000002
20
-19.575000000000003
10
296.97499999999997
20
-19.575000000000003
10
293.42500000000001
20
-19.575000000000003
10
280.92500000000001
20
-19.575000000000006
42
-0.4142135623730937
10
280.42500000000001
20
-19.075000000000003
10
280.42500000000001
20
-18.170000000000005
42
0.4142135623730937
10
279.92500000000001
20
-17.670000000000002
10
274.375
20
-17.670000000000002
10
261.875
20
-17.670000000000016
42
-0.41421356237309764
10
261.375
20
-17.170000000000002
10
261.375
20
-8.6449999999999996
42
0.4142135623730957
10
260.875
20
-8.1450000000000014
10
255.32499999999999
20
-8.1449999999999996
10
242.82499999999999
20
-8.1449999999999694
42
-0.41421356237309437
10
242.32500000000002
20
-7.6449999999999996
10
242.32500000000002
20
-2.9299999999999993
42
0.41421356237309503
10
241.82500000000002
20
-2.430000000000001
10
239.82500000000002
20
-2.430000000000001
10
226.82500000000002
20
-2.430000000000001
10
224.82500000000002
20
-2.4300000000000015
42
0.41421356237309503
10
224.32500000000002
20
-2.9299999999999993
10
224.32500000000002
20
-11.455000000000002
42
-0.41421356237309764
10
223.82499999999999
20
-11.955000000000002
10
211.32499999999999
20
-11.955000000000002
10
205.77500000000001
20
-11.955000000000002
42
0.41421356237305862
10
205.27500000000003
20
-12.455000000000002
10
205.27500000000003
20
-13.360000000000001
42
-0.4142135623730781
10
204.77499999999998
20
-13.860000000000001
10
192.27499999999998
20
-13.860000000000001
10
187.22499999999997
20
-13.860000000000001
42
0.41421356237309437
10
186.22499999999999
20
-14.860000000000003
10
186.22499999999999
20
-16.359999999999999
10
186.22499999999999
20
-29.359999999999999
10
186.22499999999999
20
-35.409999999999997
10
186.22499999999999
20
-48.410000000000004
10
186.22499999999999
20
-54.460000000000008
10
186.22499999999999
20
-65.017708886512708
42
-0.26794919192410127
10
184.72500000491613
20
-67.615785095027675
10
163.2466547863462
20
-80.016313542905721
42
0.41421356237309959
0
LWPOLYLINE
5
167
100
AcDbEntity
8
0
100
AcDbPolyline
90
8
70
1
43
0.0
10
239.82500000000002
20
-4.4300000000000015
10
226.82500000000002
20
-4.4300000000000015
42
0.41421356237309503
10
226.32499999999999
20
-4.9300000000000015
10
226.32499999999999
20
-17.93
42
0.41421356237309503
10
226.82500000000002
20
-18.43
10
239.82500000000002
20
-18.43
42
0.41421356237309503
10
240.32499999999999
20
-17.93
10
240.32499999999999
20
-4.9300000000000015
42
0.41421356237309503
0
LWPOLYLINE
5
168
100
AcDbEntity
8
0
100
AcDbPolyline
90
8
70
1
43
0.0
10
239.82500000000002
20
-42.530000000000001
10
226.82500000000002
20
-42.530000000000001
42
0.41421356237309503
10
226.32499999999999
20
-43.030000000000001
10
226.32499999999999
20
-56.030000000000008
42
0.41421356237309503
10
226.82500000000002
20
-56.530000000000001
10
239.82500000000002
20
-56.530000000000001
42
0.41421356237309503
10
240.32499999999999
20
-56.030000000000008
10
240.32499999999999
20
-43.030000000000001
42
0.41421356237309503
0
LWPOLYLINE
5
169
100
AcDbEntity
8
0
100
AcDbPolyline
90
8
70
1
43
0.0
10
207.27499999999998
20
-65.555000000000007
42
0.41421356237309503
10
207.77500000000001
20
-66.055000000000007
10
220.77500000000001
20
-66.055000000000007
42
0.41421356237309503
10
221.27500000000001
20
-65.555000000000007
10
221.27500000000001
20
-52.555000000000007
42
0.41421356237309503
10
220.77500000000001
20
-52.055000000000007
10
207.77500000000001
20
-52.055000000000007
42
0.41421356237309503
10
207.27499999999998
20
-52.555000000000007
0
LWPOLYLINE
5
170
100
AcDbEntity
8
0
100
AcDbPolyline
90
8
70
1
43
0.0
10
213.9425
20
-87.46250000000002
42
0.41421356237309503
10
214.44249999999997
20
-87.962500000000006
10
227.4425
20
-87.962500000000006
42
0.41421356237309503
10
227.9425
20
-87.46250000000002
10
227.9425
20
-74.462500000000006
42
0.41421356237309503
10
227.4425
20
-73.962500000000006
10
214.44249999999997
20
-73.962500000000006
42
0.41421356237309503
10
213.9425
20
-74.462500000000006
0
CIRCLE
5
171
100
AcDbEntity
8
0
100
AcDbCircle
10
204.75
20
-49.529999999999994
30
0
40
1
210
0
220
0
230
1
0
LWPOLYLINE
5
172
100
AcDbEntity
8
0
100
AcDbPolyline
90
8
70
1
43
0.0
10
202.22499999999997
20
-16.359999999999999
42
0.41421356237309503
10
201.72499999999999
20
-15.860000000000001
10
188.72499999999999
20
-15.860000000000001
42
0.41421356237309503
10
188.22499999999997
20
-16.359999999999999
10
188.22499999999997
20
-29.359999999999999
42
0.41421356237309503
10
188.72499999999999
20
-29.860000000000003
10
201.72499999999999
20
-29.860000000000003
42
0.41421356237309503
10
202.22499999999997
20
-29.359999999999999
0
LINE
5
173
100
AcDbEntity
8
1
100
AcDbLine
10
201.72499999999999
20
-27.454999999999998
30
0
11
201.72499999999999
21
-33.504999999999995
31
0
0
LWPOLYLINE
5
174
100
AcDbEntity
8
0
100
AcDbPolyline
90
8
70
1
43
0.0
10
207.27499999999998
20
-27.454999999999998
42
0.41421356237309503
10
207.77500000000001
20
-27.955000000000002
10
220.77500000000001
20
-27.955000000000002
42
0.41421356237309503
10
221.27500000000001
20
-27.454999999999998
10
221.27500000000001
20
-14.455
42
0.41421356237309503
10
220.77500000000001
20
-13.955000000000002
10
207.77500000000001
20
-13.955000000000002
42
0.41421356237309503
10
207.27499999999998
20
-14.455
0
LINE
5
175
100
AcDbEntity
8
1
100
AcDbLine
10
207.77500000000001
20
-27.454999999999998
30
0
11
201.72499999999999
21
-27.454999999999998
31
0
0
LWPOLYLINE
5
176
100
AcDbEntity
8
0
100
AcDbPolyline
90
8
70
1
43
0.0
10
220.77500000000001
20
-47.00500000000001
10
207.77500000000001
20
-47.00500000000001
42
-0.41421356237309503
10
207.27499999999998
20
-46.505000000000003
10
207.27499999999998
20
-33.505000000000003
42
-0.41421356237309503
10
207.77500000000001
20
-33.005000000000003
10
220.77500000000001
20
-33.004999999999995
42
-0.41421356237309503
10
221.27500000000001
20
-33.505000000000003
10
221.27500000000001
20
-46.505000000000003
42
-0.41421356237309503
0
LWPOLYLINE
5
177
100
AcDbEntity
8
0
100
AcDbPolyline
90
8
70
1
43
0.0
10
188.22499999999997
20
-35.409999999999997
10
188.22499999999997
20
-48.410000000000004
42
0.41421356237309503
10
188.72499999999999
20
-48.909999999999997
10
201.72499999999999
20
-48.909999999999997
42
0.41421356237309503
10
202.22499999999997
20
-48.410000000000004
10
202.22499999999997
20
-35.409999999999997
42
0.41421356237309503
10
201.72499999999999
20
-34.909999999999997
10
188.72499999999999
20
-34.909999999999997
42
0.41421356237309503
0
LWPOLYLINE
5
178
100
AcDbEntity
8
0
100
AcDbPolyline
90
8
70
1
43
0.0
10
259.375
20
-48.745000000000005
42
0.41421356237309503
10
258.875
20
-48.245000000000005
10
245.875
20
-48.245000000000005
42
0.41421356237309503
10
245.375
20
-48.745000000000005
10
245.375
20
-61.745000000000005
42
0.41421356237309503
10
245.875
20
-62.244999999999997
10
258.875
20
-62.244999999999997
42
0.41421356237309503
10
259.375
20
-61.745000000000005
0
LWPOLYLINE
5
179
100
AcDbEntity
8
0
100
AcDbPolyline
90
8
70
1
43
0.0
10
283.47500000000002
20
-60.174999999999997
10
283.47500000000002
20
-73.174999999999997
42
0.41421356237309503
10
283.97500000000002
20
-73.674999999999997
10
296.97499999999997
20
-73.674999999999997
42
0.41421356237309503
10
297.47500000000002
20
-73.174999999999997
10
297.47500000000002
20
-60.174999999999997
42
0.41421356237309503
10
296.97499999999997
20
-59.675000000000004
10
283.97500000000002
20
-59.675000000000004
42
0.41421356237309503
0
LWPOLYLINE
5
180
100
AcDbEntity
8
0
100
AcDbPolyline
90
8
70
1
43
0.0
10
188.72499999999999
20
-53.960000000000008
42
0.41421356237309503
10
188.22499999999997
20
-54.460000000000008
10
188.22499999999997
20
-67.459999999999994
42
0.41421356237309503
10
188.72499999999999
20
-67.959999999999994
10
201.72499999999999
20
-67.959999999999994
42
0.41421356237309503
10
202.22499999999997
20
-67.459999999999994
10
202.22499999999997
20
-54.460000000000008
42
0.41421356237309503
10
201.72499999999999
20
-53.960000000000008
0
LWPOLYLINE
5
181
100
AcDbEntity
8
0
100
AcDbPolyline
90
8
70
1
43
0.0
10
226.82500000000002
20
-23.480000000000004
42
0.41421356237309503
10
226.32499999999999
20
-23.98
10
226.32499999999999
20
-36.980000000000004
42
0.41421356237309503
10
226.82500000000002
20
-37.480000000000004
10
239.82500000000002
20
-37.480000000000004
42
0.41421356237309503
10
240.32499999999999
20
-36.980000000000004
10
240.32499999999999
20
-23.98
42
0.41421356237309503
10
239.82500000000002
20
-23.480000000000004
0
LWPOLYLINE
5
182
100
AcDbEntity
8
0
100
AcDbPolyline
90
8
70
1
43
0.0
10
277.92500000000001
20
-52.719999999999999
42
0.41421356237309503
10
278.42500000000001
20
-52.220000000000006
10
278.42500000000001
20
-39.219999999999999
42
0.41421356237309503
10
277.92500000000001
20
-38.719999999999999
10
264.92500000000001
20
-38.719999999999999
42
0.41421356237309503
10
264.42500000000001
20
-39.219999999999999
10
264.42500000000001
20
-52.220000000000006
42
0.41421356237309503
10
264.92500000000001
20
-52.719999999999999
0
CIRCLE
5
183
100
AcDbEntity
8
0
100
AcDbCircle
10
280.94999999999999
20
-57.150000000000006
30
0
40
1
210
0
220
0
230
1
0
LINE
5
184
100
AcDbEntity
8
1
100
AcDbLine
10
201.72499999999999
20
-46.505000000000003
30
0
11
201.72499999999999
21
-52.554999999999993
31
0
0
LINE
5
185
100
AcDbEntity
8
1
100
AcDbLine
10
283.97500000000002
20
-54.125000000000007
30
0
11
277.92500000000001
21
-54.125000000000007
31
0
0
LWPOLYLINE
5
186
100
AcDbEntity
8
0
100
AcDbPolyline
90
8
70
1
43
0.0
10
296.97499999999997
20
-54.625
10
283.97500000000002
20
-54.625000000000014
42
-0.41421356237309503
10
283.47500000000002
20
-54.125000000000007
10
283.47500000000002
20
-41.125
42
-0.41421356237309503
10
283.97500000000002
20
-40.625
10
296.97499999999997
20
-40.624999999999957
42
-0.41421356237309503
10
297.47500000000002
20
-41.125
10
297.47499999999997
20
-54.125000000000007
42
-0.41421356237309503
0
LWPOLYLINE
5
187
100
AcDbEntity
8
0
100
AcDbPolyline
90
8
70
1
43
0.0
10
278.42500000000001
20
-58.27000000000001
42
0.41421356237309503
10
277.92500000000001
20
-57.77000000000001
10
264.92500000000001
20
-57.77000000000001
42
0.41421356237309503
10
264.42500000000001
20
-58.27000000000001
10
264.42500000000001
20
-71.269999999999996
42
0.41421356237309503
10
264.92500000000001
20
-71.769999999999996
10
277.92500000000001
20
-71.769999999999996
42
0.41421356237309503
10
278.42500000000001
20
-71.269999999999996
0
LINE
5
188
100
AcDbEntity
8
1
100
AcDbLine
10
201.72499999999999
20
-33.504999999999995
30
0
11
207.77500000000001
21
-33.504999999999995
31
0
0
CIRCLE
5
189
100
AcDbEntity
8
0
100
AcDbCircle
10
280.94999999999999
20
-38.100000000000001
30
0
40
1
210
0
220
0
230
1
0
LINE
5
190
100
AcDbEntity
8
1
100
AcDbLine
10
277.92500000000001
20
-60.174999999999997
30
0
11
283.97500000000002
21
-60.174999999999997
31
0
0
CIRCLE
5
191
100
AcDbEntity
8
0
100
AcDbCircle
10
204.75
20
-30.479999999999997
30
0
40
1
210
0
220
0
230
1
0
LWPOLYLINE
5
192
100
AcDbEntity
8
0
100
AcDbPolyline
90
8
70
1
43
0.0
10
297.47500000000002
20
-22.074999999999999
10
297.47499999999997
20
-35.075000000000003
42
-0.41421356237309503
10
296.97499999999997
20
-35.575000000000003
10
283.97500000000002
20
-35.57500000000001
42
-0.41421356237309503
10
283.47500000000002
20
-35.075000000000003
10
283.47500000000002
20
-22.074999999999999
42
-0.41421356237309503
10
283.97500000000002
20
-21.575000000000003
10
296.97499999999997
20
-21.574999999999957
42
-0.41421356237309503
0
LINE
5
193
100
AcDbEntity
8
1
100
AcDbLine
10
201.72499999999999
20
-52.554999999999993
30
0
11
207.77500000000001
21
-52.554999999999993
31
0
0
LINE
5
194
100
AcDbEntity
8
0
100
AcDbLine
10
258.875
20
-62.244999999999997
30
0
11
245.875
21
-62.244999999999997
31
0
0
LINE
5
195
100
AcDbEntity
8
1
100
AcDbLine
10
283.97500000000002
20
-60.174999999999997
30
0
11
283.97500000000002
21
-54.125000000000007
31
0
0
LINE
5
196
100
AcDbEntity
8
1
100
AcDbLine
10
283.97500000000002
20
-41.125
30
0
11
283.97500000000002
21
-35.075000000000003
31
0
0
LINE
5
197
100
AcDbEntity
8
1
100
AcDbLine
10
233.32499999999999
20
-47.625
30
0
11
233.32499999999999
21
-65.625
31
0
0
LINE
5
198
100
AcDbEntity
8
1
100
AcDbLine
10
207.77500000000001
20
-46.505000000000003
30
0
11
201.72499999999999
21
-46.505000000000003
31
0
0
LINE
5
199
100
AcDbEntity
8
1
100
AcDbLine
10
277.92500000000001
20
-54.125000000000007
30
0
11
277.92500000000001
21
-60.174999999999997
31
0
0
LWPOLYLINE
5
200
100
AcDbEntity
8
0
100
AcDbPolyline
90
8
70
1
43
0.0
10
258.875
20
-10.145
10
245.875
20
-10.145
42
0.41421356237309503
10
245.375
20
-10.645
10
245.375
20
-23.645
42
0.41421356237309503
10
245.875
20
-24.145000000000003
10
258.875
20
-24.145000000000003
42
0.41421356237309503
10
259.375
20
-23.645
10
259.375
20
-10.645
42
0.41421356237309503
0
LINE
5
201
100
AcDbEntity
8
1
100
AcDbLine
10
283.97500000000002
20
-35.075000000000003
30
0
11
277.92500000000001
21
-35.075000000000003
31
0
0
LWPOLYLINE
5
202
100
AcDbEntity
8
0
100
AcDbPolyline
90
8
70
1
43
0.0
10
258.875
20
-29.195
10
245.875
20
-29.195
42
0.41421356237309503
10
245.375
20
-29.695
10
245.375
20
-42.695
42
0.41421356237309503
10
245.875
20
-43.195000000000007
10
258.875
20
-43.195000000000007
42
0.41421356237309503
10
259.375
20
-42.695
10
259.375
20
-29.695
42
0.41421356237309503
0
LINE
5
203
100
AcDbEntity
8
1
100
AcDbLine
10
277.92500000000001
20
-41.125
30
0
11
283.97500000000002
21
-41.125
31
0
0
LINE
5
204
100
AcDbEntity
8
0
100
AcDbLine
10
277.92500000000001
20
-71.769999999999996
30
0
11
264.92500000000001
21
-71.769999999999996
31
0
0
LWPOLYLINE
5
205
100
AcDbEntity
8
0
100
AcDbPolyline
90
8
70
1
43
0.0
10
277.92500000000001
20
-19.670000000000002
10
264.92500000000001
20
-19.670000000000002
42
0.41421356237309503
10
264.42500000000001
20
-20.170000000000002
10
264.42500000000001
20
-33.170000000000002
42
0.41421356237309503
10
264.92500000000001
20
-33.670000000000002
10
277.92500000000001
20
-33.670000000000002
42
0.41421356237309503
10
278.42500000000001
20
-33.170000000000002
10
278.42500000000001
20
-20.170000000000002
42
0.41421356237309503
0
LINE
5
206
100
AcDbEntity
8
1
100
AcDbLine
10
277.92500000000001
20
-35.075000000000003
30
0
11
277.92500000000001
21
-41.125
31
0
0
CIRCLE
5
207
100
AcDbEntity
8
0
100
AcDbCircle
10
233.32499999999999
20
-65.625
30
0
40
0.99999999999999645
210
0
220
0
230
1
0
LINE
5
208
100
AcDbEntity
8
0
100
AcDbLine
10
297.47500000000002
20
-60.174999999999997
30
0
11
297.47500000000002
21
-73.174999999999997
31
0
0
LINE
5
209
100
AcDbEntity
8
1
100
AcDbLine
10
207.77500000000001
20
-52.554999999999993
30
0
11
207.77500000000001
21
-46.505000000000003
31
0
0
LINE
5
210
100
AcDbEntity
8
1
100
AcDbLine
10
207.77500000000001
20
-33.504999999999995
30
0
11
207.77500000000001
21
-27.454999999999998
31
0
0
LINE
5
211
100
AcDbEntity
8
0
100
AcDbLine
10
297.47500000000002
20
-41.125
30
0
11
297.47500000000002
21
-54.125000000000007
31
0
0
LINE
5
212
100
AcDbEntity
8
0
100
AcDbLine
10
227.9425
20
-74.462500000000006
30
0
11
227.9425
21
-87.46250000000002
31
0
0
ENDSEC
0
SECTION
2
OBJECTS
0
DICTIONARY
5
C
100
AcDbDictionary
3
ACAD_GROUP
350
D
3
ACAD_MLINESTYLE
350
17
0
DICTIONARY
5
D
100
AcDbDictionary
0
DICTIONARY
5
1A
330
C
100
AcDbDictionary
0
DICTIONARY
5
17
100
AcDbDictionary
0
ENDSEC
0
EOF
