<svg width="285.75mm" height="102.082mm" viewBox="0 0 285.75 102.082" xmlns="http://www.w3.org/2000/svg"><g id="svgGroup" stroke-linecap="round" fill-rule="evenodd" font-size="9pt" stroke="#000" stroke-width="0.25mm" fill="none" style="stroke:#000;stroke-width:0.25mm;fill:none"><path d="M 0 102.082 L 285.75 102.082 L 285.75 0 L 0 0 L 0 102.082 Z M 178.622 78.588 L 191.179 75.224 A 0.5 0.5 0 0 1 191.792 75.577 L 195.156 88.134 A 0.5 0.5 0 0 1 194.803 88.747 L 182.246 92.111 A 0.5 0.5 0 0 1 181.633 91.758 L 178.269 79.201 A 0.5 0.5 0 0 1 178.622 78.588 Z M 94.571 75.224 L 107.128 78.588 A 0.5 0.5 0 0 1 107.481 79.201 L 104.117 91.758 A 0.5 0.5 0 0 1 103.504 92.111 L 90.947 88.747 A 0.5 0.5 0 0 1 90.594 88.134 L 93.958 75.577 A 0.5 0.5 0 0 1 94.571 75.224 Z M 79.225 52.055 L 92.225 52.055 A 0.5 0.5 0 0 1 92.725 52.555 L 92.725 65.555 A 0.5 0.5 0 0 1 92.225 66.055 L 79.225 66.055 A 0.5 0.5 0 0 1 78.725 65.555 L 78.725 52.555 A 0.5 0.5 0 0 1 79.225 52.055 Z M 193.525 52.055 L 206.525 52.055 A 0.5 0.5 0 0 1 207.025 52.555 L 207.025 65.555 A 0.5 0.5 0 0 1 206.525 66.055 L 193.525 66.055 A 0.5 0.5 0 0 1 193.025 65.555 L 193.025 52.555 A 0.5 0.5 0 0 1 193.525 52.055 Z M 98.275 53.96 L 111.275 53.96 A 0.5 0.5 0 0 1 111.775 54.46 L 111.775 67.46 A 0.5 0.5 0 0 1 111.275 67.96 L 98.275 67.96 A 0.5 0.5 0 0 1 97.775 67.46 L 97.775 54.46 A 0.5 0.5 0 0 1 98.275 53.96 Z M 174.475 53.96 L 187.475 53.96 A 0.5 0.5 0 0 1 187.975 54.46 L 187.975 67.46 A 0.5 0.5 0 0 1 187.475 67.96 L 174.475 67.96 A 0.5 0.5 0 0 1 173.975 67.46 L 173.975 54.46 A 0.5 0.5 0 0 1 174.475 53.96 Z M 22.075 16.813 L 35.075 16.813 A 0.5 0.5 0 0 1 35.575 17.313 L 35.575 30.313 A 0.5 0.5 0 0 1 35.075 30.813 L 22.075 30.813 A 0.5 0.5 0 0 1 21.575 30.313 L 21.575 17.313 A 0.5 0.5 0 0 1 22.075 16.813 Z M 60.175 21.575 L 73.175 21.575 A 0.5 0.5 0 0 1 73.675 22.075 L 73.675 35.075 A 0.5 0.5 0 0 1 73.175 35.575 L 60.175 35.575 A 0.5 0.5 0 0 1 59.675 35.075 L 59.675 22.075 A 0.5 0.5 0 0 1 60.175 21.575 Z M 212.575 21.575 L 225.575 21.575 A 0.5 0.5 0 0 1 226.075 22.075 L 226.075 35.075 A 0.5 0.5 0 0 1 225.575 35.575 L 212.575 35.575 A 0.5 0.5 0 0 1 212.075 35.075 L 212.075 22.075 A 0.5 0.5 0 0 1 212.575 21.575 Z M 22.075 35.863 L 35.075 35.863 A 0.5 0.5 0 0 1 35.575 36.363 L 35.575 49.363 A 0.5 0.5 0 0 1 35.075 49.863 L 22.075 49.863 A 0.5 0.5 0 0 1 21.575 49.363 L 21.575 36.363 A 0.5 0.5 0 0 1 22.075 35.863 Z M 41.125 10.145 L 54.125 10.145 A 0.5 0.5 0 0 1 54.625 10.645 L 54.625 23.645 A 0.5 0.5 0 0 1 54.125 24.145 L 41.125 24.145 A 0.5 0.5 0 0 1 40.625 23.645 L 40.625 10.645 A 0.5 0.5 0 0 1 41.125 10.145 Z M 231.625 10.145 L 244.625 10.145 A 0.5 0.5 0 0 1 245.125 10.645 L 245.125 23.645 A 0.5 0.5 0 0 1 244.625 24.145 L 231.625 24.145 A 0.5 0.5 0 0 1 231.125 23.645 L 231.125 10.645 A 0.5 0.5 0 0 1 231.625 10.145 Z M 79.225 13.955 L 92.225 13.955 A 0.5 0.5 0 0 1 92.725 14.455 L 92.725 27.455 A 0.5 0.5 0 0 1 92.225 27.955 L 79.225 27.955 A 0.5 0.5 0 0 1 78.725 27.455 L 78.725 14.455 A 0.5 0.5 0 0 1 79.225 13.955 Z M 193.525 13.955 L 206.525 13.955 A 0.5 0.5 0 0 1 207.025 14.455 L 207.025 27.455 A 0.5 0.5 0 0 1 206.525 27.955 L 193.525 27.955 A 0.5 0.5 0 0 1 193.025 27.455 L 193.025 14.455 A 0.5 0.5 0 0 1 193.525 13.955 Z M 98.275 15.86 L 111.275 15.86 A 0.5 0.5 0 0 1 111.775 16.36 L 111.775 29.36 A 0.5 0.5 0 0 1 111.275 29.86 L 98.275 29.86 A 0.5 0.5 0 0 1 97.775 29.36 L 97.775 16.36 A 0.5 0.5 0 0 1 98.275 15.86 Z M 174.475 15.86 L 187.475 15.86 A 0.5 0.5 0 0 1 187.975 16.36 L 187.975 29.36 A 0.5 0.5 0 0 1 187.475 29.86 L 174.475 29.86 A 0.5 0.5 0 0 1 173.975 29.36 L 173.975 16.36 A 0.5 0.5 0 0 1 174.475 15.86 Z M 250.675 16.813 L 263.675 16.813 A 0.5 0.5 0 0 1 264.175 17.313 L 264.175 30.313 A 0.5 0.5 0 0 1 263.675 30.813 L 250.675 30.813 A 0.5 0.5 0 0 1 250.175 30.313 L 250.175 17.313 A 0.5 0.5 0 0 1 250.675 16.813 Z M 269.725 16.813 L 282.725 16.813 A 0.5 0.5 0 0 1 283.225 17.313 L 283.225 30.313 A 0.5 0.5 0 0 1 282.725 30.813 L 269.725 30.813 A 0.5 0.5 0 0 1 269.225 30.313 L 269.225 17.313 A 0.5 0.5 0 0 1 269.725 16.813 Z M 41.125 29.195 L 54.125 29.195 A 0.5 0.5 0 0 1 54.625 29.695 L 54.625 42.695 A 0.5 0.5 0 0 1 54.125 43.195 L 41.125 43.195 A 0.5 0.5 0 0 1 40.625 42.695 L 40.625 29.695 A 0.5 0.5 0 0 1 41.125 29.195 Z M 231.625 29.195 L 244.625 29.195 A 0.5 0.5 0 0 1 245.125 29.695 L 245.125 42.695 A 0.5 0.5 0 0 1 244.625 43.195 L 231.625 43.195 A 0.5 0.5 0 0 1 231.125 42.695 L 231.125 29.695 A 0.5 0.5 0 0 1 231.625 29.195 Z M 79.225 33.005 L 92.225 33.005 A 0.5 0.5 0 0 1 92.725 33.505 L 92.725 46.505 A 0.5 0.5 0 0 1 92.225 47.005 L 79.225 47.005 A 0.5 0.5 0 0 1 78.725 46.505 L 78.725 33.505 A 0.5 0.5 0 0 1 79.225 33.005 Z M 193.525 33.005 L 206.525 33.005 A 0.5 0.5 0 0 1 207.025 33.505 L 207.025 46.505 A 0.5 0.5 0 0 1 206.525 47.005 L 193.525 47.005 A 0.5 0.5 0 0 1 193.025 46.505 L 193.025 33.505 A 0.5 0.5 0 0 1 193.525 33.005 Z M 98.275 34.91 L 111.275 34.91 A 0.5 0.5 0 0 1 111.775 35.41 L 111.775 48.41 A 0.5 0.5 0 0 1 111.275 48.91 L 98.275 48.91 A 0.5 0.5 0 0 1 97.775 48.41 L 97.775 35.41 A 0.5 0.5 0 0 1 98.275 34.91 Z M 174.475 34.91 L 187.475 34.91 A 0.5 0.5 0 0 1 187.975 35.41 L 187.975 48.41 A 0.5 0.5 0 0 1 187.475 48.91 L 174.475 48.91 A 0.5 0.5 0 0 1 173.975 48.41 L 173.975 35.41 A 0.5 0.5 0 0 1 174.475 34.91 Z M 250.675 35.863 L 263.675 35.863 A 0.5 0.5 0 0 1 264.175 36.363 L 264.175 49.363 A 0.5 0.5 0 0 1 263.675 49.863 L 250.675 49.863 A 0.5 0.5 0 0 1 250.175 49.363 L 250.175 36.363 A 0.5 0.5 0 0 1 250.675 35.863 Z M 269.725 35.863 L 282.725 35.863 A 0.5 0.5 0 0 1 283.225 36.363 L 283.225 49.363 A 0.5 0.5 0 0 1 282.725 49.863 L 269.725 49.863 A 0.5 0.5 0 0 1 269.225 49.363 L 269.225 36.363 A 0.5 0.5 0 0 1 269.725 35.863 Z M 60.175 40.625 L 73.175 40.625 A 0.5 0.5 0 0 1 73.675 41.125 L 73.675 54.125 A 0.5 0.5 0 0 1 73.175 54.625 L 60.175 54.625 A 0.5 0.5 0 0 1 59.675 54.125 L 59.675 41.125 A 0.5 0.5 0 0 1 60.175 40.625 Z M 212.575 40.625 L 225.575 40.625 A 0.5 0.5 0 0 1 226.075 41.125 L 226.075 54.125 A 0.5 0.5 0 0 1 225.575 54.625 L 212.575 54.625 A 0.5 0.5 0 0 1 212.075 54.125 L 212.075 41.125 A 0.5 0.5 0 0 1 212.575 40.625 Z M 41.125 48.245 L 54.125 48.245 A 0.5 0.5 0 0 1 54.625 48.745 L 54.625 61.745 A 0.5 0.5 0 0 1 54.125 62.245 L 41.125 62.245 A 0.5 0.5 0 0 1 40.625 61.745 L 40.625 48.745 A 0.5 0.5 0 0 1 41.125 48.245 Z M 231.625 48.245 L 244.625 48.245 A 0.5 0.5 0 0 1 245.125 48.745 L 245.125 61.745 A 0.5 0.5 0 0 1 244.625 62.245 L 231.625 62.245 A 0.5 0.5 0 0 1 231.125 61.745 L 231.125 48.745 A 0.5 0.5 0 0 1 231.625 48.245 Z M 69.7 73.963 L 82.7 73.963 A 0.5 0.5 0 0 1 83.2 74.463 L 83.2 87.463 A 0.5 0.5 0 0 1 82.7 87.963 L 69.7 87.963 A 0.5 0.5 0 0 1 69.2 87.463 L 69.2 74.463 A 0.5 0.5 0 0 1 69.7 73.963 Z M 203.05 73.963 L 216.05 73.963 A 0.5 0.5 0 0 1 216.55 74.463 L 216.55 87.463 A 0.5 0.5 0 0 1 216.05 87.963 L 203.05 87.963 A 0.5 0.5 0 0 1 202.55 87.463 L 202.55 74.463 A 0.5 0.5 0 0 1 203.05 73.963 Z M 60.175 2.525 L 73.175 2.525 A 0.5 0.5 0 0 1 73.675 3.025 L 73.675 16.025 A 0.5 0.5 0 0 1 73.175 16.525 L 60.175 16.525 A 0.5 0.5 0 0 1 59.675 16.025 L 59.675 3.025 A 0.5 0.5 0 0 1 60.175 2.525 Z M 212.575 2.525 L 225.575 2.525 A 0.5 0.5 0 0 1 226.075 3.025 L 226.075 16.025 A 0.5 0.5 0 0 1 225.575 16.525 L 212.575 16.525 A 0.5 0.5 0 0 1 212.075 16.025 L 212.075 3.025 A 0.5 0.5 0 0 1 212.575 2.525 Z M 3.025 16.813 L 16.025 16.813 A 0.5 0.5 0 0 1 16.525 17.313 L 16.525 30.313 A 0.5 0.5 0 0 1 16.025 30.813 L 3.025 30.813 A 0.5 0.5 0 0 1 2.525 30.313 L 2.525 17.313 A 0.5 0.5 0 0 1 3.025 16.813 Z M 3.025 35.863 L 16.025 35.863 A 0.5 0.5 0 0 1 16.525 36.363 L 16.525 49.363 A 0.5 0.5 0 0 1 16.025 49.863 L 3.025 49.863 A 0.5 0.5 0 0 1 2.525 49.363 L 2.525 36.363 A 0.5 0.5 0 0 1 3.025 35.863 Z M 22.075 54.913 L 35.075 54.913 A 0.5 0.5 0 0 1 35.575 55.413 L 35.575 68.413 A 0.5 0.5 0 0 1 35.075 68.913 L 22.075 68.913 A 0.5 0.5 0 0 1 21.575 68.413 L 21.575 55.413 A 0.5 0.5 0 0 1 22.075 54.913 Z M 250.675 54.913 L 263.675 54.913 A 0.5 0.5 0 0 1 264.175 55.413 L 264.175 68.413 A 0.5 0.5 0 0 1 263.675 68.913 L 250.675 68.913 A 0.5 0.5 0 0 1 250.175 68.413 L 250.175 55.413 A 0.5 0.5 0 0 1 250.675 54.913 Z M 269.725 54.913 L 282.725 54.913 A 0.5 0.5 0 0 1 283.225 55.413 L 283.225 68.413 A 0.5 0.5 0 0 1 282.725 68.913 L 269.725 68.913 A 0.5 0.5 0 0 1 269.225 68.413 L 269.225 55.413 A 0.5 0.5 0 0 1 269.725 54.913 Z M 3.025 54.913 L 16.025 54.913 A 0.5 0.5 0 0 1 16.525 55.413 L 16.525 68.413 A 0.5 0.5 0 0 1 16.025 68.913 L 3.025 68.913 A 0.5 0.5 0 0 1 2.525 68.413 L 2.525 55.413 A 0.5 0.5 0 0 1 3.025 54.913 Z M 132.337 85.665 L 125.837 96.923 A 0.5 0.5 0 0 1 125.154 97.106 L 113.896 90.606 A 0.5 0.5 0 0 1 113.713 89.923 L 120.213 78.665 A 0.5 0.5 0 0 1 120.896 78.482 L 132.154 84.982 A 0.5 0.5 0 0 1 132.337 85.665 Z M 165.537 78.665 L 172.037 89.923 A 0.5 0.5 0 0 1 171.854 90.606 L 160.596 97.106 A 0.5 0.5 0 0 1 159.913 96.923 L 153.413 85.665 A 0.5 0.5 0 0 1 153.596 84.982 L 164.854 78.482 A 0.5 0.5 0 0 1 165.537 78.665 Z" vector-effect="non-scaling-stroke"/></g></svg>