
  <svg width='840px'
       height='329.7779134401907px'
       viewBox='0 0 840 329.7779134401907'
       xmlns='http://www.w3.org/2000/svg'
       xmlns:xlink="http://www.w3.org/1999/xlink">

    <style type='text/css'>
    .keycap .border { stroke: black; stroke-width: 2; }
    .keycap .inner.border { stroke: rgba(0,0,0,.1); }
    </style>
    <defs>
      <linearGradient id="DCS">
        <stop offset="0%" stop-color="black" stop-opacity="0"/>
        <stop offset="40%" stop-color="black" stop-opacity="0.1"/>
        <stop offset="60%" stop-color="black" stop-opacity="0.1"/>
        <stop offset="100%" stop-color="black" stop-opacity="0"/>
      </linearGradient>
      <linearGradient id="SPACE" x1="0%" x2="0%" y1="0%" y2="100%">
        <stop offset="0%" stop-color="black" stop-opacity="0.1"/>
        <stop offset="20%" stop-color="black" stop-opacity="0.0"/>
        <stop offset="40%" stop-color="black" stop-opacity="0.0"/>
        <stop offset="100%" stop-color="black" stop-opacity="0.1"/>
      </linearGradient>
      <radialGradient id="DSA">
        <stop offset="0%" stop-color="black" stop-opacity="0.1"/>
        <stop offset="10%" stop-color="black" stop-opacity="0.1"/>
        <stop offset="100%" stop-color="black" stop-opacity="0"/>
      </radialGradient>
      <radialGradient id="SA" xlink:href="#DSA" />
    </defs>

    <g transform='translate(10,10)'>
      <rect width="820" height="309.7779134401907"
            stroke="#ddd" stroke-width="1" fill="#ffffff" rx="6"/>
      <g transform='translate(5,5)'>
        
  <g class='  keycap'
  >

  
    <!-- Outer Border -->
    <rect x="163" y="1"
          width="52" height="52"
          rx="5" fill="#cccccc" class="outer border"/>
    
    <!-- Outer Fill -->
    <rect x="163" y="1"
          width="52" height="52"
          rx="5" fill="#cccccc"/>
    

    
      <!-- Inner Border -->
      <rect x="169" y="4"
            width="40" height="40"
            rx="5" fill="#fcfcfc" class="inner border"/>
      
      <!-- Inner Fill -->
      <rect x="169" y="4"
            width="40" height="40"
            rx="5" fill="#fcfcfc"/>
      
      

     
   
  </g>

  <g class='  keycap'
  >

  
    <!-- Outer Border -->
    <rect x="595" y="1"
          width="52" height="52"
          rx="5" fill="#cccccc" class="outer border"/>
    
    <!-- Outer Fill -->
    <rect x="595" y="1"
          width="52" height="52"
          rx="5" fill="#cccccc"/>
    

    
      <!-- Inner Border -->
      <rect x="601" y="4"
            width="40" height="40"
            rx="5" fill="#fcfcfc" class="inner border"/>
      
      <!-- Inner Fill -->
      <rect x="601" y="4"
            width="40" height="40"
            rx="5" fill="#fcfcfc"/>
      
      

     
   
  </g>

  <g class='  keycap'
  >

  
    <!-- Outer Border -->
    <rect x="109" y="22.6"
          width="52" height="52"
          rx="5" fill="#cccccc" class="outer border"/>
    
    <!-- Outer Fill -->
    <rect x="109" y="22.6"
          width="52" height="52"
          rx="5" fill="#cccccc"/>
    

    
      <!-- Inner Border -->
      <rect x="115" y="25.6"
            width="40" height="40"
            rx="5" fill="#fcfcfc" class="inner border"/>
      
      <!-- Inner Fill -->
      <rect x="115" y="25.6"
            width="40" height="40"
            rx="5" fill="#fcfcfc"/>
      
      

     
   
  </g>

  <g class='  keycap'
  >

  
    <!-- Outer Border -->
    <rect x="649" y="22.6"
          width="52" height="52"
          rx="5" fill="#cccccc" class="outer border"/>
    
    <!-- Outer Fill -->
    <rect x="649" y="22.6"
          width="52" height="52"
          rx="5" fill="#cccccc"/>
    

    
      <!-- Inner Border -->
      <rect x="655" y="25.6"
            width="40" height="40"
            rx="5" fill="#fcfcfc" class="inner border"/>
      
      <!-- Inner Fill -->
      <rect x="655" y="25.6"
            width="40" height="40"
            rx="5" fill="#fcfcfc"/>
      
      

     
   
  </g>

  <g class='  keycap'
  >

  
    <!-- Outer Border -->
    <rect x="217" y="33.4"
          width="52" height="52"
          rx="5" fill="#cccccc" class="outer border"/>
    
    <!-- Outer Fill -->
    <rect x="217" y="33.4"
          width="52" height="52"
          rx="5" fill="#cccccc"/>
    

    
      <!-- Inner Border -->
      <rect x="223" y="36.4"
            width="40" height="40"
            rx="5" fill="#fcfcfc" class="inner border"/>
      
      <!-- Inner Fill -->
      <rect x="223" y="36.4"
            width="40" height="40"
            rx="5" fill="#fcfcfc"/>
      
      

     
   
  </g>

  <g class='  keycap'
  >

  
    <!-- Outer Border -->
    <rect x="541" y="33.4"
          width="52" height="52"
          rx="5" fill="#cccccc" class="outer border"/>
    
    <!-- Outer Fill -->
    <rect x="541" y="33.4"
          width="52" height="52"
          rx="5" fill="#cccccc"/>
    

    
      <!-- Inner Border -->
      <rect x="547" y="36.4"
            width="40" height="40"
            rx="5" fill="#fcfcfc" class="inner border"/>
      
      <!-- Inner Fill -->
      <rect x="547" y="36.4"
            width="40" height="40"
            rx="5" fill="#fcfcfc"/>
      
      

     
   
  </g>

  <g class='  keycap'
  >

  
    <!-- Outer Border -->
    <rect x="271" y="38.8"
          width="52" height="52"
          rx="5" fill="#cccccc" class="outer border"/>
    
    <!-- Outer Fill -->
    <rect x="271" y="38.8"
          width="52" height="52"
          rx="5" fill="#cccccc"/>
    

    
      <!-- Inner Border -->
      <rect x="277" y="41.8"
            width="40" height="40"
            rx="5" fill="#fcfcfc" class="inner border"/>
      
      <!-- Inner Fill -->
      <rect x="277" y="41.8"
            width="40" height="40"
            rx="5" fill="#fcfcfc"/>
      
      

     
   
  </g>

  <g class='  keycap'
  >

  
    <!-- Outer Border -->
    <rect x="487" y="38.8"
          width="52" height="52"
          rx="5" fill="#cccccc" class="outer border"/>
    
    <!-- Outer Fill -->
    <rect x="487" y="38.8"
          width="52" height="52"
          rx="5" fill="#cccccc"/>
    

    
      <!-- Inner Border -->
      <rect x="493" y="41.8"
            width="40" height="40"
            rx="5" fill="#fcfcfc" class="inner border"/>
      
      <!-- Inner Fill -->
      <rect x="493" y="41.8"
            width="40" height="40"
            rx="5" fill="#fcfcfc"/>
      
      

     
   
  </g>

  <g class='  keycap'
  >

  
    <!-- Outer Border -->
    <rect x="1" y="41.5"
          width="52" height="52"
          rx="5" fill="#cccccc" class="outer border"/>
    
    <!-- Outer Fill -->
    <rect x="1" y="41.5"
          width="52" height="52"
          rx="5" fill="#cccccc"/>
    

    
      <!-- Inner Border -->
      <rect x="7" y="44.5"
            width="40" height="40"
            rx="5" fill="#fcfcfc" class="inner border"/>
      
      <!-- Inner Fill -->
      <rect x="7" y="44.5"
            width="40" height="40"
            rx="5" fill="#fcfcfc"/>
      
      

     
   
  </g>

  <g class='  keycap'
  >

  
    <!-- Outer Border -->
    <rect x="55" y="41.5"
          width="52" height="52"
          rx="5" fill="#cccccc" class="outer border"/>
    
    <!-- Outer Fill -->
    <rect x="55" y="41.5"
          width="52" height="52"
          rx="5" fill="#cccccc"/>
    

    
      <!-- Inner Border -->
      <rect x="61" y="44.5"
            width="40" height="40"
            rx="5" fill="#fcfcfc" class="inner border"/>
      
      <!-- Inner Fill -->
      <rect x="61" y="44.5"
            width="40" height="40"
            rx="5" fill="#fcfcfc"/>
      
      

     
   
  </g>

  <g class='  keycap'
  >

  
    <!-- Outer Border -->
    <rect x="703" y="41.5"
          width="52" height="52"
          rx="5" fill="#cccccc" class="outer border"/>
    
    <!-- Outer Fill -->
    <rect x="703" y="41.5"
          width="52" height="52"
          rx="5" fill="#cccccc"/>
    

    
      <!-- Inner Border -->
      <rect x="709" y="44.5"
            width="40" height="40"
            rx="5" fill="#fcfcfc" class="inner border"/>
      
      <!-- Inner Fill -->
      <rect x="709" y="44.5"
            width="40" height="40"
            rx="5" fill="#fcfcfc"/>
      
      

     
   
  </g>

  <g class='  keycap'
  >

  
    <!-- Outer Border -->
    <rect x="757" y="41.5"
          width="52" height="52"
          rx="5" fill="#cccccc" class="outer border"/>
    
    <!-- Outer Fill -->
    <rect x="757" y="41.5"
          width="52" height="52"
          rx="5" fill="#cccccc"/>
    

    
      <!-- Inner Border -->
      <rect x="763" y="44.5"
            width="40" height="40"
            rx="5" fill="#fcfcfc" class="inner border"/>
      
      <!-- Inner Fill -->
      <rect x="763" y="44.5"
            width="40" height="40"
            rx="5" fill="#fcfcfc"/>
      
      

     
   
  </g>

  <g class='  keycap'
  >

  
    <!-- Outer Border -->
    <rect x="163" y="55"
          width="52" height="52"
          rx="5" fill="#cccccc" class="outer border"/>
    
    <!-- Outer Fill -->
    <rect x="163" y="55"
          width="52" height="52"
          rx="5" fill="#cccccc"/>
    

    
      <!-- Inner Border -->
      <rect x="169" y="58"
            width="40" height="40"
            rx="5" fill="#fcfcfc" class="inner border"/>
      
      <!-- Inner Fill -->
      <rect x="169" y="58"
            width="40" height="40"
            rx="5" fill="#fcfcfc"/>
      
      

     
   
  </g>

  <g class='  keycap'
  >

  
    <!-- Outer Border -->
    <rect x="595" y="55"
          width="52" height="52"
          rx="5" fill="#cccccc" class="outer border"/>
    
    <!-- Outer Fill -->
    <rect x="595" y="55"
          width="52" height="52"
          rx="5" fill="#cccccc"/>
    

    
      <!-- Inner Border -->
      <rect x="601" y="58"
            width="40" height="40"
            rx="5" fill="#fcfcfc" class="inner border"/>
      
      <!-- Inner Fill -->
      <rect x="601" y="58"
            width="40" height="40"
            rx="5" fill="#fcfcfc"/>
      
      

     
   
  </g>

  <g class='  keycap'
  >

  
    <!-- Outer Border -->
    <rect x="109" y="76.6"
          width="52" height="52"
          rx="5" fill="#cccccc" class="outer border"/>
    
    <!-- Outer Fill -->
    <rect x="109" y="76.6"
          width="52" height="52"
          rx="5" fill="#cccccc"/>
    

    
      <!-- Inner Border -->
      <rect x="115" y="79.6"
            width="40" height="40"
            rx="5" fill="#fcfcfc" class="inner border"/>
      
      <!-- Inner Fill -->
      <rect x="115" y="79.6"
            width="40" height="40"
            rx="5" fill="#fcfcfc"/>
      
      

     
   
  </g>

  <g class='  keycap'
  >

  
    <!-- Outer Border -->
    <rect x="649" y="76.6"
          width="52" height="52"
          rx="5" fill="#cccccc" class="outer border"/>
    
    <!-- Outer Fill -->
    <rect x="649" y="76.6"
          width="52" height="52"
          rx="5" fill="#cccccc"/>
    

    
      <!-- Inner Border -->
      <rect x="655" y="79.6"
            width="40" height="40"
            rx="5" fill="#fcfcfc" class="inner border"/>
      
      <!-- Inner Fill -->
      <rect x="655" y="79.6"
            width="40" height="40"
            rx="5" fill="#fcfcfc"/>
      
      

     
   
  </g>

  <g class='  keycap'
  >

  
    <!-- Outer Border -->
    <rect x="217" y="87.4"
          width="52" height="52"
          rx="5" fill="#cccccc" class="outer border"/>
    
    <!-- Outer Fill -->
    <rect x="217" y="87.4"
          width="52" height="52"
          rx="5" fill="#cccccc"/>
    

    
      <!-- Inner Border -->
      <rect x="223" y="90.4"
            width="40" height="40"
            rx="5" fill="#fcfcfc" class="inner border"/>
      
      <!-- Inner Fill -->
      <rect x="223" y="90.4"
            width="40" height="40"
            rx="5" fill="#fcfcfc"/>
      
      

     
   
  </g>

  <g class='  keycap'
  >

  
    <!-- Outer Border -->
    <rect x="541" y="87.4"
          width="52" height="52"
          rx="5" fill="#cccccc" class="outer border"/>
    
    <!-- Outer Fill -->
    <rect x="541" y="87.4"
          width="52" height="52"
          rx="5" fill="#cccccc"/>
    

    
      <!-- Inner Border -->
      <rect x="547" y="90.4"
            width="40" height="40"
            rx="5" fill="#fcfcfc" class="inner border"/>
      
      <!-- Inner Fill -->
      <rect x="547" y="90.4"
            width="40" height="40"
            rx="5" fill="#fcfcfc"/>
      
      

     
   
  </g>

  <g class='  keycap'
  >

  
    <!-- Outer Border -->
    <rect x="271" y="92.8"
          width="52" height="52"
          rx="5" fill="#cccccc" class="outer border"/>
    
    <!-- Outer Fill -->
    <rect x="271" y="92.8"
          width="52" height="52"
          rx="5" fill="#cccccc"/>
    

    
      <!-- Inner Border -->
      <rect x="277" y="95.8"
            width="40" height="40"
            rx="5" fill="#fcfcfc" class="inner border"/>
      
      <!-- Inner Fill -->
      <rect x="277" y="95.8"
            width="40" height="40"
            rx="5" fill="#fcfcfc"/>
      
      

     
   
  </g>

  <g class='  keycap'
  >

  
    <!-- Outer Border -->
    <rect x="487" y="92.8"
          width="52" height="52"
          rx="5" fill="#cccccc" class="outer border"/>
    
    <!-- Outer Fill -->
    <rect x="487" y="92.8"
          width="52" height="52"
          rx="5" fill="#cccccc"/>
    

    
      <!-- Inner Border -->
      <rect x="493" y="95.8"
            width="40" height="40"
            rx="5" fill="#fcfcfc" class="inner border"/>
      
      <!-- Inner Fill -->
      <rect x="493" y="95.8"
            width="40" height="40"
            rx="5" fill="#fcfcfc"/>
      
      

     
   
  </g>

  <g class='  keycap'
  >

  
    <!-- Outer Border -->
    <rect x="1" y="95.5"
          width="52" height="52"
          rx="5" fill="#cccccc" class="outer border"/>
    
    <!-- Outer Fill -->
    <rect x="1" y="95.5"
          width="52" height="52"
          rx="5" fill="#cccccc"/>
    

    
      <!-- Inner Border -->
      <rect x="7" y="98.5"
            width="40" height="40"
            rx="5" fill="#fcfcfc" class="inner border"/>
      
      <!-- Inner Fill -->
      <rect x="7" y="98.5"
            width="40" height="40"
            rx="5" fill="#fcfcfc"/>
      
      

     
   
  </g>

  <g class='  keycap'
  >

  
    <!-- Outer Border -->
    <rect x="55" y="95.5"
          width="52" height="52"
          rx="5" fill="#cccccc" class="outer border"/>
    
    <!-- Outer Fill -->
    <rect x="55" y="95.5"
          width="52" height="52"
          rx="5" fill="#cccccc"/>
    

    
      <!-- Inner Border -->
      <rect x="61" y="98.5"
            width="40" height="40"
            rx="5" fill="#fcfcfc" class="inner border"/>
      
      <!-- Inner Fill -->
      <rect x="61" y="98.5"
            width="40" height="40"
            rx="5" fill="#fcfcfc"/>
      
      

     
   
  </g>

  <g class='  keycap'
  >

  
    <!-- Outer Border -->
    <rect x="703" y="95.5"
          width="52" height="52"
          rx="5" fill="#cccccc" class="outer border"/>
    
    <!-- Outer Fill -->
    <rect x="703" y="95.5"
          width="52" height="52"
          rx="5" fill="#cccccc"/>
    

    
      <!-- Inner Border -->
      <rect x="709" y="98.5"
            width="40" height="40"
            rx="5" fill="#fcfcfc" class="inner border"/>
      
      <!-- Inner Fill -->
      <rect x="709" y="98.5"
            width="40" height="40"
            rx="5" fill="#fcfcfc"/>
      
      

     
   
  </g>

  <g class='  keycap'
  >

  
    <!-- Outer Border -->
    <rect x="757" y="95.5"
          width="52" height="52"
          rx="5" fill="#cccccc" class="outer border"/>
    
    <!-- Outer Fill -->
    <rect x="757" y="95.5"
          width="52" height="52"
          rx="5" fill="#cccccc"/>
    

    
      <!-- Inner Border -->
      <rect x="763" y="98.5"
            width="40" height="40"
            rx="5" fill="#fcfcfc" class="inner border"/>
      
      <!-- Inner Fill -->
      <rect x="763" y="98.5"
            width="40" height="40"
            rx="5" fill="#fcfcfc"/>
      
      

     
   
  </g>

  <g class='  keycap'
  >

  
    <!-- Outer Border -->
    <rect x="163" y="109"
          width="52" height="52"
          rx="5" fill="#cccccc" class="outer border"/>
    
    <!-- Outer Fill -->
    <rect x="163" y="109"
          width="52" height="52"
          rx="5" fill="#cccccc"/>
    

    
      <!-- Inner Border -->
      <rect x="169" y="112"
            width="40" height="40"
            rx="5" fill="#fcfcfc" class="inner border"/>
      
      <!-- Inner Fill -->
      <rect x="169" y="112"
            width="40" height="40"
            rx="5" fill="#fcfcfc"/>
      
      

     
   
  </g>

  <g class='  keycap'
  >

  
    <!-- Outer Border -->
    <rect x="595" y="109"
          width="52" height="52"
          rx="5" fill="#cccccc" class="outer border"/>
    
    <!-- Outer Fill -->
    <rect x="595" y="109"
          width="52" height="52"
          rx="5" fill="#cccccc"/>
    

    
      <!-- Inner Border -->
      <rect x="601" y="112"
            width="40" height="40"
            rx="5" fill="#fcfcfc" class="inner border"/>
      
      <!-- Inner Fill -->
      <rect x="601" y="112"
            width="40" height="40"
            rx="5" fill="#fcfcfc"/>
      
      

     
   
  </g>

  <g class='  keycap'
  >

  
    <!-- Outer Border -->
    <rect x="109" y="130.6"
          width="52" height="52"
          rx="5" fill="#cccccc" class="outer border"/>
    
    <!-- Outer Fill -->
    <rect x="109" y="130.6"
          width="52" height="52"
          rx="5" fill="#cccccc"/>
    

    
      <!-- Inner Border -->
      <rect x="115" y="133.6"
            width="40" height="40"
            rx="5" fill="#fcfcfc" class="inner border"/>
      
      <!-- Inner Fill -->
      <rect x="115" y="133.6"
            width="40" height="40"
            rx="5" fill="#fcfcfc"/>
      
      

     
   
  </g>

  <g class='  keycap'
  >

  
    <!-- Outer Border -->
    <rect x="649" y="130.6"
          width="52" height="52"
          rx="5" fill="#cccccc" class="outer border"/>
    
    <!-- Outer Fill -->
    <rect x="649" y="130.6"
          width="52" height="52"
          rx="5" fill="#cccccc"/>
    

    
      <!-- Inner Border -->
      <rect x="655" y="133.6"
            width="40" height="40"
            rx="5" fill="#fcfcfc" class="inner border"/>
      
      <!-- Inner Fill -->
      <rect x="655" y="133.6"
            width="40" height="40"
            rx="5" fill="#fcfcfc"/>
      
      

     
   
  </g>

  <g class='  keycap'
  >

  
    <!-- Outer Border -->
    <rect x="217" y="141.4"
          width="52" height="52"
          rx="5" fill="#cccccc" class="outer border"/>
    
    <!-- Outer Fill -->
    <rect x="217" y="141.4"
          width="52" height="52"
          rx="5" fill="#cccccc"/>
    

    
      <!-- Inner Border -->
      <rect x="223" y="144.4"
            width="40" height="40"
            rx="5" fill="#fcfcfc" class="inner border"/>
      
      <!-- Inner Fill -->
      <rect x="223" y="144.4"
            width="40" height="40"
            rx="5" fill="#fcfcfc"/>
      
      

     
   
  </g>

  <g class='  keycap'
  >

  
    <!-- Outer Border -->
    <rect x="541" y="141.4"
          width="52" height="52"
          rx="5" fill="#cccccc" class="outer border"/>
    
    <!-- Outer Fill -->
    <rect x="541" y="141.4"
          width="52" height="52"
          rx="5" fill="#cccccc"/>
    

    
      <!-- Inner Border -->
      <rect x="547" y="144.4"
            width="40" height="40"
            rx="5" fill="#fcfcfc" class="inner border"/>
      
      <!-- Inner Fill -->
      <rect x="547" y="144.4"
            width="40" height="40"
            rx="5" fill="#fcfcfc"/>
      
      

     
   
  </g>

  <g class='  keycap'
  >

  
    <!-- Outer Border -->
    <rect x="271" y="146.8"
          width="52" height="52"
          rx="5" fill="#cccccc" class="outer border"/>
    
    <!-- Outer Fill -->
    <rect x="271" y="146.8"
          width="52" height="52"
          rx="5" fill="#cccccc"/>
    

    
      <!-- Inner Border -->
      <rect x="277" y="149.8"
            width="40" height="40"
            rx="5" fill="#fcfcfc" class="inner border"/>
      
      <!-- Inner Fill -->
      <rect x="277" y="149.8"
            width="40" height="40"
            rx="5" fill="#fcfcfc"/>
      
      

     
   
  </g>

  <g class='  keycap'
  >

  
    <!-- Outer Border -->
    <rect x="487" y="146.8"
          width="52" height="52"
          rx="5" fill="#cccccc" class="outer border"/>
    
    <!-- Outer Fill -->
    <rect x="487" y="146.8"
          width="52" height="52"
          rx="5" fill="#cccccc"/>
    

    
      <!-- Inner Border -->
      <rect x="493" y="149.8"
            width="40" height="40"
            rx="5" fill="#fcfcfc" class="inner border"/>
      
      <!-- Inner Fill -->
      <rect x="493" y="149.8"
            width="40" height="40"
            rx="5" fill="#fcfcfc"/>
      
      

     
   
  </g>

  <g class='  keycap'
  >

  
    <!-- Outer Border -->
    <rect x="1" y="149.5"
          width="52" height="52"
          rx="5" fill="#cccccc" class="outer border"/>
    
    <!-- Outer Fill -->
    <rect x="1" y="149.5"
          width="52" height="52"
          rx="5" fill="#cccccc"/>
    

    
      <!-- Inner Border -->
      <rect x="7" y="152.5"
            width="40" height="40"
            rx="5" fill="#fcfcfc" class="inner border"/>
      
      <!-- Inner Fill -->
      <rect x="7" y="152.5"
            width="40" height="40"
            rx="5" fill="#fcfcfc"/>
      
      

     
   
  </g>

  <g class='  keycap'
  >

  
    <!-- Outer Border -->
    <rect x="55" y="149.5"
          width="52" height="52"
          rx="5" fill="#cccccc" class="outer border"/>
    
    <!-- Outer Fill -->
    <rect x="55" y="149.5"
          width="52" height="52"
          rx="5" fill="#cccccc"/>
    

    
      <!-- Inner Border -->
      <rect x="61" y="152.5"
            width="40" height="40"
            rx="5" fill="#fcfcfc" class="inner border"/>
      
      <!-- Inner Fill -->
      <rect x="61" y="152.5"
            width="40" height="40"
            rx="5" fill="#fcfcfc"/>
      
      

     
   
  </g>

  <g class='  keycap'
  >

  
    <!-- Outer Border -->
    <rect x="703" y="149.5"
          width="52" height="52"
          rx="5" fill="#cccccc" class="outer border"/>
    
    <!-- Outer Fill -->
    <rect x="703" y="149.5"
          width="52" height="52"
          rx="5" fill="#cccccc"/>
    

    
      <!-- Inner Border -->
      <rect x="709" y="152.5"
            width="40" height="40"
            rx="5" fill="#fcfcfc" class="inner border"/>
      
      <!-- Inner Fill -->
      <rect x="709" y="152.5"
            width="40" height="40"
            rx="5" fill="#fcfcfc"/>
      
      

     
   
  </g>

  <g class='  keycap'
  >

  
    <!-- Outer Border -->
    <rect x="757" y="149.5"
          width="52" height="52"
          rx="5" fill="#cccccc" class="outer border"/>
    
    <!-- Outer Fill -->
    <rect x="757" y="149.5"
          width="52" height="52"
          rx="5" fill="#cccccc"/>
    

    
      <!-- Inner Border -->
      <rect x="763" y="152.5"
            width="40" height="40"
            rx="5" fill="#fcfcfc" class="inner border"/>
      
      <!-- Inner Fill -->
      <rect x="763" y="152.5"
            width="40" height="40"
            rx="5" fill="#fcfcfc"/>
      
      

     
   
  </g>

  <g class='  keycap'
  >

  
    <!-- Outer Border -->
    <rect x="190" y="203.5"
          width="52" height="52"
          rx="5" fill="#cccccc" class="outer border"/>
    
    <!-- Outer Fill -->
    <rect x="190" y="203.5"
          width="52" height="52"
          rx="5" fill="#cccccc"/>
    

    
      <!-- Inner Border -->
      <rect x="196" y="206.5"
            width="40" height="40"
            rx="5" fill="#fcfcfc" class="inner border"/>
      
      <!-- Inner Fill -->
      <rect x="196" y="206.5"
            width="40" height="40"
            rx="5" fill="#fcfcfc"/>
      
      

     
   
  </g>

  <g class='  keycap'
  >

  
    <!-- Outer Border -->
    <rect x="568" y="203.5"
          width="52" height="52"
          rx="5" fill="#cccccc" class="outer border"/>
    
    <!-- Outer Fill -->
    <rect x="568" y="203.5"
          width="52" height="52"
          rx="5" fill="#cccccc"/>
    

    
      <!-- Inner Border -->
      <rect x="574" y="206.5"
            width="40" height="40"
            rx="5" fill="#fcfcfc" class="inner border"/>
      
      <!-- Inner Fill -->
      <rect x="574" y="206.5"
            width="40" height="40"
            rx="5" fill="#fcfcfc"/>
      
      

     
   
  </g>

  <g class='  keycap'
  
     transform="rotate(15 243 378)"
  >

  
    <!-- Outer Border -->
    <rect x="217" y="203.5"
          width="52" height="52"
          rx="5" fill="#cccccc" class="outer border"/>
    
    <!-- Outer Fill -->
    <rect x="217" y="203.5"
          width="52" height="52"
          rx="5" fill="#cccccc"/>
    

    
      <!-- Inner Border -->
      <rect x="223" y="206.5"
            width="40" height="40"
            rx="5" fill="#fcfcfc" class="inner border"/>
      
      <!-- Inner Fill -->
      <rect x="223" y="206.5"
            width="40" height="40"
            rx="5" fill="#fcfcfc"/>
      
      

     
   
  </g>

  <g class='  keycap'
  
     transform="rotate(30 243 378)"
  >

  
    <!-- Outer Border -->
    <rect x="244" y="176.5"
          width="52" height="79"
          rx="5" fill="#cccccc" class="outer border"/>
    
    <!-- Outer Fill -->
    <rect x="244" y="176.5"
          width="52" height="79"
          rx="5" fill="#cccccc"/>
    

    
      <!-- Inner Border -->
      <rect x="250" y="179.5"
            width="40" height="67"
            rx="5" fill="#fcfcfc" class="inner border"/>
      
      <!-- Inner Fill -->
      <rect x="250" y="179.5"
            width="40" height="67"
            rx="5" fill="#fcfcfc"/>
      
      

     
   
  </g>

  <g class='  keycap'
  
     transform="rotate(-30 567 378)"
  >

  
    <!-- Outer Border -->
    <rect x="514" y="176.5"
          width="52" height="79"
          rx="5" fill="#cccccc" class="outer border"/>
    
    <!-- Outer Fill -->
    <rect x="514" y="176.5"
          width="52" height="79"
          rx="5" fill="#cccccc"/>
    

    
      <!-- Inner Border -->
      <rect x="520" y="179.5"
            width="40" height="67"
            rx="5" fill="#fcfcfc" class="inner border"/>
      
      <!-- Inner Fill -->
      <rect x="520" y="179.5"
            width="40" height="67"
            rx="5" fill="#fcfcfc"/>
      
      

     
   
  </g>

  <g class='  keycap'
  
     transform="rotate(-15 567 378)"
  >

  
    <!-- Outer Border -->
    <rect x="541" y="203.5"
          width="52" height="52"
          rx="5" fill="#cccccc" class="outer border"/>
    
    <!-- Outer Fill -->
    <rect x="541" y="203.5"
          width="52" height="52"
          rx="5" fill="#cccccc"/>
    

    
      <!-- Inner Border -->
      <rect x="547" y="206.5"
            width="40" height="40"
            rx="5" fill="#fcfcfc" class="inner border"/>
      
      <!-- Inner Fill -->
      <rect x="547" y="206.5"
            width="40" height="40"
            rx="5" fill="#fcfcfc"/>
      
      

     
   
  </g>

      </g>
    </g>
  </svg>
