<svg width="285.75mm" height="102.082mm" viewBox="0 0 285.75 102.082" xmlns="http://www.w3.org/2000/svg"><g id="svgGroup" stroke-linecap="round" fill-rule="evenodd" font-size="9pt" stroke="#000" stroke-width="0.25mm" fill="none" style="stroke:#000;stroke-width:0.25mm;fill:none"><path d="M 0 102.082 L 285.75 102.082 L 285.75 0 L 0 0 L 0 102.082 Z M 176.782 79.081 L 189.339 75.717 A 0.5 0.5 0 0 1 189.952 76.07 L 193.316 88.627 A 0.5 0.5 0 0 1 192.963 89.24 L 180.406 92.604 A 0.5 0.5 0 0 1 179.793 92.251 L 176.429 79.694 A 0.5 0.5 0 0 1 176.782 79.081 Z M 96.411 75.717 L 108.968 79.081 A 0.5 0.5 0 0 1 109.321 79.694 L 105.957 92.251 A 0.5 0.5 0 0 1 105.344 92.604 L 92.787 89.24 A 0.5 0.5 0 0 1 92.434 88.627 L 95.798 76.07 A 0.5 0.5 0 0 1 96.411 75.717 Z M 79.225 52.055 L 92.225 52.055 A 0.5 0.5 0 0 1 92.725 52.555 L 92.725 65.555 A 0.5 0.5 0 0 1 92.225 66.055 L 79.225 66.055 A 0.5 0.5 0 0 1 78.725 65.555 L 78.725 52.555 A 0.5 0.5 0 0 1 79.225 52.055 Z M 193.525 52.055 L 206.525 52.055 A 0.5 0.5 0 0 1 207.025 52.555 L 207.025 65.555 A 0.5 0.5 0 0 1 206.525 66.055 L 193.525 66.055 A 0.5 0.5 0 0 1 193.025 65.555 L 193.025 52.555 A 0.5 0.5 0 0 1 193.525 52.055 Z M 98.275 53.96 L 111.275 53.96 A 0.5 0.5 0 0 1 111.775 54.46 L 111.775 67.46 A 0.5 0.5 0 0 1 111.275 67.96 L 98.275 67.96 A 0.5 0.5 0 0 1 97.775 67.46 L 97.775 54.46 A 0.5 0.5 0 0 1 98.275 53.96 Z M 174.475 53.96 L 187.475 53.96 A 0.5 0.5 0 0 1 187.975 54.46 L 187.975 67.46 A 0.5 0.5 0 0 1 187.475 67.96 L 174.475 67.96 A 0.5 0.5 0 0 1 173.975 67.46 L 173.975 54.46 A 0.5 0.5 0 0 1 174.475 53.96 Z M 22.075 19.67 L 35.075 19.67 A 0.5 0.5 0 0 1 35.575 20.17 L 35.575 33.17 A 0.5 0.5 0 0 1 35.075 33.67 L 22.075 33.67 A 0.5 0.5 0 0 1 21.575 33.17 L 21.575 20.17 A 0.5 0.5 0 0 1 22.075 19.67 Z M 3.025 21.575 L 16.025 21.575 A 0.5 0.5 0 0 1 16.525 22.075 L 16.525 35.075 A 0.5 0.5 0 0 1 16.025 35.575 L 3.025 35.575 A 0.5 0.5 0 0 1 2.525 35.075 L 2.525 22.075 A 0.5 0.5 0 0 1 3.025 21.575 Z M 60.175 21.575 L 73.175 21.575 A 0.5 0.5 0 0 1 73.675 22.075 L 73.675 35.075 A 0.5 0.5 0 0 1 73.175 35.575 L 60.175 35.575 A 0.5 0.5 0 0 1 59.675 35.075 L 59.675 22.075 A 0.5 0.5 0 0 1 60.175 21.575 Z M 212.575 21.575 L 225.575 21.575 A 0.5 0.5 0 0 1 226.075 22.075 L 226.075 35.075 A 0.5 0.5 0 0 1 225.575 35.575 L 212.575 35.575 A 0.5 0.5 0 0 1 212.075 35.075 L 212.075 22.075 A 0.5 0.5 0 0 1 212.575 21.575 Z M 269.725 21.575 L 282.725 21.575 A 0.5 0.5 0 0 1 283.225 22.075 L 283.225 35.075 A 0.5 0.5 0 0 1 282.725 35.575 L 269.725 35.575 A 0.5 0.5 0 0 1 269.225 35.075 L 269.225 22.075 A 0.5 0.5 0 0 1 269.725 21.575 Z M 22.075 38.72 L 35.075 38.72 A 0.5 0.5 0 0 1 35.575 39.22 L 35.575 52.22 A 0.5 0.5 0 0 1 35.075 52.72 L 22.075 52.72 A 0.5 0.5 0 0 1 21.575 52.22 L 21.575 39.22 A 0.5 0.5 0 0 1 22.075 38.72 Z M 22.075 57.77 L 35.075 57.77 A 0.5 0.5 0 0 1 35.575 58.27 L 35.575 71.27 A 0.5 0.5 0 0 1 35.075 71.77 L 22.075 71.77 A 0.5 0.5 0 0 1 21.575 71.27 L 21.575 58.27 A 0.5 0.5 0 0 1 22.075 57.77 Z M 41.125 10.145 L 54.125 10.145 A 0.5 0.5 0 0 1 54.625 10.645 L 54.625 23.645 A 0.5 0.5 0 0 1 54.125 24.145 L 41.125 24.145 A 0.5 0.5 0 0 1 40.625 23.645 L 40.625 10.645 A 0.5 0.5 0 0 1 41.125 10.145 Z M 231.625 10.145 L 244.625 10.145 A 0.5 0.5 0 0 1 245.125 10.645 L 245.125 23.645 A 0.5 0.5 0 0 1 244.625 24.145 L 231.625 24.145 A 0.5 0.5 0 0 1 231.125 23.645 L 231.125 10.645 A 0.5 0.5 0 0 1 231.625 10.145 Z M 79.225 13.955 L 92.225 13.955 A 0.5 0.5 0 0 1 92.725 14.455 L 92.725 27.455 A 0.5 0.5 0 0 1 92.225 27.955 L 79.225 27.955 A 0.5 0.5 0 0 1 78.725 27.455 L 78.725 14.455 A 0.5 0.5 0 0 1 79.225 13.955 Z M 193.525 13.955 L 206.525 13.955 A 0.5 0.5 0 0 1 207.025 14.455 L 207.025 27.455 A 0.5 0.5 0 0 1 206.525 27.955 L 193.525 27.955 A 0.5 0.5 0 0 1 193.025 27.455 L 193.025 14.455 A 0.5 0.5 0 0 1 193.525 13.955 Z M 98.275 15.86 L 111.275 15.86 A 0.5 0.5 0 0 1 111.775 16.36 L 111.775 29.36 A 0.5 0.5 0 0 1 111.275 29.86 L 98.275 29.86 A 0.5 0.5 0 0 1 97.775 29.36 L 97.775 16.36 A 0.5 0.5 0 0 1 98.275 15.86 Z M 174.475 15.86 L 187.475 15.86 A 0.5 0.5 0 0 1 187.975 16.36 L 187.975 29.36 A 0.5 0.5 0 0 1 187.475 29.86 L 174.475 29.86 A 0.5 0.5 0 0 1 173.975 29.36 L 173.975 16.36 A 0.5 0.5 0 0 1 174.475 15.86 Z M 250.675 19.67 L 263.675 19.67 A 0.5 0.5 0 0 1 264.175 20.17 L 264.175 33.17 A 0.5 0.5 0 0 1 263.675 33.67 L 250.675 33.67 A 0.5 0.5 0 0 1 250.175 33.17 L 250.175 20.17 A 0.5 0.5 0 0 1 250.675 19.67 Z M 41.125 29.195 L 54.125 29.195 A 0.5 0.5 0 0 1 54.625 29.695 L 54.625 42.695 A 0.5 0.5 0 0 1 54.125 43.195 L 41.125 43.195 A 0.5 0.5 0 0 1 40.625 42.695 L 40.625 29.695 A 0.5 0.5 0 0 1 41.125 29.195 Z M 231.625 29.195 L 244.625 29.195 A 0.5 0.5 0 0 1 245.125 29.695 L 245.125 42.695 A 0.5 0.5 0 0 1 244.625 43.195 L 231.625 43.195 A 0.5 0.5 0 0 1 231.125 42.695 L 231.125 29.695 A 0.5 0.5 0 0 1 231.625 29.195 Z M 79.225 33.005 L 92.225 33.005 A 0.5 0.5 0 0 1 92.725 33.505 L 92.725 46.505 A 0.5 0.5 0 0 1 92.225 47.005 L 79.225 47.005 A 0.5 0.5 0 0 1 78.725 46.505 L 78.725 33.505 A 0.5 0.5 0 0 1 79.225 33.005 Z M 193.525 33.005 L 206.525 33.005 A 0.5 0.5 0 0 1 207.025 33.505 L 207.025 46.505 A 0.5 0.5 0 0 1 206.525 47.005 L 193.525 47.005 A 0.5 0.5 0 0 1 193.025 46.505 L 193.025 33.505 A 0.5 0.5 0 0 1 193.525 33.005 Z M 98.275 34.91 L 111.275 34.91 A 0.5 0.5 0 0 1 111.775 35.41 L 111.775 48.41 A 0.5 0.5 0 0 1 111.275 48.91 L 98.275 48.91 A 0.5 0.5 0 0 1 97.775 48.41 L 97.775 35.41 A 0.5 0.5 0 0 1 98.275 34.91 Z M 174.475 34.91 L 187.475 34.91 A 0.5 0.5 0 0 1 187.975 35.41 L 187.975 48.41 A 0.5 0.5 0 0 1 187.475 48.91 L 174.475 48.91 A 0.5 0.5 0 0 1 173.975 48.41 L 173.975 35.41 A 0.5 0.5 0 0 1 174.475 34.91 Z M 250.675 38.72 L 263.675 38.72 A 0.5 0.5 0 0 1 264.175 39.22 L 264.175 52.22 A 0.5 0.5 0 0 1 263.675 52.72 L 250.675 52.72 A 0.5 0.5 0 0 1 250.175 52.22 L 250.175 39.22 A 0.5 0.5 0 0 1 250.675 38.72 Z M 60.175 40.625 L 73.175 40.625 A 0.5 0.5 0 0 1 73.675 41.125 L 73.675 54.125 A 0.5 0.5 0 0 1 73.175 54.625 L 60.175 54.625 A 0.5 0.5 0 0 1 59.675 54.125 L 59.675 41.125 A 0.5 0.5 0 0 1 60.175 40.625 Z M 212.575 40.625 L 225.575 40.625 A 0.5 0.5 0 0 1 226.075 41.125 L 226.075 54.125 A 0.5 0.5 0 0 1 225.575 54.625 L 212.575 54.625 A 0.5 0.5 0 0 1 212.075 54.125 L 212.075 41.125 A 0.5 0.5 0 0 1 212.575 40.625 Z M 269.725 40.625 L 282.725 40.625 A 0.5 0.5 0 0 1 283.225 41.125 L 283.225 54.125 A 0.5 0.5 0 0 1 282.725 54.625 L 269.725 54.625 A 0.5 0.5 0 0 1 269.225 54.125 L 269.225 41.125 A 0.5 0.5 0 0 1 269.725 40.625 Z M 41.125 48.245 L 54.125 48.245 A 0.5 0.5 0 0 1 54.625 48.745 L 54.625 61.745 A 0.5 0.5 0 0 1 54.125 62.245 L 41.125 62.245 A 0.5 0.5 0 0 1 40.625 61.745 L 40.625 48.745 A 0.5 0.5 0 0 1 41.125 48.245 Z M 231.625 48.245 L 244.625 48.245 A 0.5 0.5 0 0 1 245.125 48.745 L 245.125 61.745 A 0.5 0.5 0 0 1 244.625 62.245 L 231.625 62.245 A 0.5 0.5 0 0 1 231.125 61.745 L 231.125 48.745 A 0.5 0.5 0 0 1 231.625 48.245 Z M 250.675 57.77 L 263.675 57.77 A 0.5 0.5 0 0 1 264.175 58.27 L 264.175 71.27 A 0.5 0.5 0 0 1 263.675 71.77 L 250.675 71.77 A 0.5 0.5 0 0 1 250.175 71.27 L 250.175 58.27 A 0.5 0.5 0 0 1 250.675 57.77 Z M 269.725 59.675 L 282.725 59.675 A 0.5 0.5 0 0 1 283.225 60.175 L 283.225 73.175 A 0.5 0.5 0 0 1 282.725 73.675 L 269.725 73.675 A 0.5 0.5 0 0 1 269.225 73.175 L 269.225 60.175 A 0.5 0.5 0 0 1 269.725 59.675 Z M 72.558 73.963 L 85.558 73.963 A 0.5 0.5 0 0 1 86.058 74.463 L 86.058 87.463 A 0.5 0.5 0 0 1 85.558 87.963 L 72.558 87.963 A 0.5 0.5 0 0 1 72.058 87.463 L 72.058 74.463 A 0.5 0.5 0 0 1 72.558 73.963 Z M 200.193 73.963 L 213.193 73.963 A 0.5 0.5 0 0 1 213.693 74.463 L 213.693 87.463 A 0.5 0.5 0 0 1 213.193 87.963 L 200.193 87.963 A 0.5 0.5 0 0 1 199.693 87.463 L 199.693 74.463 A 0.5 0.5 0 0 1 200.193 73.963 Z M 60.175 2.525 L 73.175 2.525 A 0.5 0.5 0 0 1 73.675 3.025 L 73.675 16.025 A 0.5 0.5 0 0 1 73.175 16.525 L 60.175 16.525 A 0.5 0.5 0 0 1 59.675 16.025 L 59.675 3.025 A 0.5 0.5 0 0 1 60.175 2.525 Z M 212.575 2.525 L 225.575 2.525 A 0.5 0.5 0 0 1 226.075 3.025 L 226.075 16.025 A 0.5 0.5 0 0 1 225.575 16.525 L 212.575 16.525 A 0.5 0.5 0 0 1 212.075 16.025 L 212.075 3.025 A 0.5 0.5 0 0 1 212.575 2.525 Z M 3.025 40.625 L 16.025 40.625 A 0.5 0.5 0 0 1 16.525 41.125 L 16.525 54.125 A 0.5 0.5 0 0 1 16.025 54.625 L 3.025 54.625 A 0.5 0.5 0 0 1 2.525 54.125 L 2.525 41.125 A 0.5 0.5 0 0 1 3.025 40.625 Z M 3.025 59.675 L 16.025 59.675 A 0.5 0.5 0 0 1 16.525 60.175 L 16.525 73.175 A 0.5 0.5 0 0 1 16.025 73.675 L 3.025 73.675 A 0.5 0.5 0 0 1 2.525 73.175 L 2.525 60.175 A 0.5 0.5 0 0 1 3.025 59.675 Z M 132.337 85.665 L 125.837 96.923 A 0.5 0.5 0 0 1 125.154 97.106 L 113.896 90.606 A 0.5 0.5 0 0 1 113.713 89.923 L 120.213 78.665 A 0.5 0.5 0 0 1 120.896 78.482 L 132.154 84.982 A 0.5 0.5 0 0 1 132.337 85.665 Z M 165.537 78.665 L 172.037 89.923 A 0.5 0.5 0 0 1 171.854 90.606 L 160.596 97.106 A 0.5 0.5 0 0 1 159.913 96.923 L 153.413 85.665 A 0.5 0.5 0 0 1 153.596 84.982 L 164.854 78.482 A 0.5 0.5 0 0 1 165.537 78.665 Z" vector-effect="non-scaling-stroke"/></g></svg>