0
SECTION
2
HEADER
9
$INSUNITS
70
4
0
ENDSEC
0
SECTION
2
TABLES
0
TABLE
2
LTYPE
0
LTYPE
72
65
70
64
2
CONTINUOUS
3
______
73
0
40
0
0
ENDTAB
0
TABLE
2
LAYER
0
ENDTAB
0
ENDSEC
0
SECTION
2
ENTITIES
0
LINE
8
0
10
60.175
20
-2.525
11
73.175
21
-2.525
0
LINE
8
0
10
60.175
20
-16.525
11
73.175
21
-16.525
0
LINE
8
0
10
59.675
20
-3.025
11
59.675
21
-16.025
0
LINE
8
0
10
73.675
20
-3.025
11
73.675
21
-16.025
0
ARC
8
0
10
60.175
20
-3.025
40
0.5
50
90
51
180
0
ARC
8
0
10
73.175
20
-3.025
40
0.5
50
0
51
90
0
ARC
8
0
10
60.175
20
-16.025
40
0.5
50
180
51
270
0
ARC
8
0
10
73.175
20
-16.025
40
0.5
50
270
51
0
0
LINE
8
0
10
212.575
20
-2.525
11
225.575
21
-2.525
0
LINE
8
0
10
212.575
20
-16.525
11
225.575
21
-16.525
0
LINE
8
0
10
212.075
20
-3.025
11
212.075
21
-16.025
0
LINE
8
0
10
226.075
20
-3.025
11
226.075
21
-16.025
0
ARC
8
0
10
212.575
20
-3.025
40
0.5
50
90
51
180
0
ARC
8
0
10
225.575
20
-3.025
40
0.5
50
0
51
90
0
ARC
8
0
10
212.575
20
-16.025
40
0.5
50
180
51
270
0
ARC
8
0
10
225.575
20
-16.025
40
0.5
50
270
51
0
0
LINE
8
0
10
41.125
20
-10.145
11
54.125
21
-10.145
0
LINE
8
0
10
41.125
20
-24.145
11
54.125
21
-24.145
0
LINE
8
0
10
40.625
20
-10.645
11
40.625
21
-23.645
0
LINE
8
0
10
54.625
20
-10.645
11
54.625
21
-23.645
0
ARC
8
0
10
41.125
20
-10.645
40
0.5
50
90
51
180
0
ARC
8
0
10
54.125
20
-10.645
40
0.5
50
0
51
90
0
ARC
8
0
10
41.125
20
-23.645
40
0.5
50
180
51
270
0
ARC
8
0
10
54.125
20
-23.645
40
0.5
50
270
51
0
0
LINE
8
0
10
231.625
20
-10.145
11
244.625
21
-10.145
0
LINE
8
0
10
231.625
20
-24.145
11
244.625
21
-24.145
0
LINE
8
0
10
231.125
20
-10.645
11
231.125
21
-23.645
0
LINE
8
0
10
245.125
20
-10.645
11
245.125
21
-23.645
0
ARC
8
0
10
231.625
20
-10.645
40
0.5
50
90
51
180
0
ARC
8
0
10
244.625
20
-10.645
40
0.5
50
0
51
90
0
ARC
8
0
10
231.625
20
-23.645
40
0.5
50
180
51
270
0
ARC
8
0
10
244.625
20
-23.645
40
0.5
50
270
51
0
0
LINE
8
0
10
79.225
20
-13.955
11
92.225
21
-13.955
0
LINE
8
0
10
79.225
20
-27.955
11
92.225
21
-27.955
0
LINE
8
0
10
78.725
20
-14.455
11
78.725
21
-27.455
0
LINE
8
0
10
92.725
20
-14.455
11
92.725
21
-27.455
0
ARC
8
0
10
79.225
20
-14.455
40
0.5
50
90
51
180
0
ARC
8
0
10
92.225
20
-14.455
40
0.5
50
0
51
90
0
ARC
8
0
10
79.225
20
-27.455
40
0.5
50
180
51
270
0
ARC
8
0
10
92.225
20
-27.455
40
0.5
50
270
51
0
0
LINE
8
0
10
193.525
20
-13.955
11
206.525
21
-13.955
0
LINE
8
0
10
193.525
20
-27.955
11
206.525
21
-27.955
0
LINE
8
0
10
193.025
20
-14.455
11
193.025
21
-27.455
0
LINE
8
0
10
207.025
20
-14.455
11
207.025
21
-27.455
0
ARC
8
0
10
193.525
20
-14.455
40
0.5
50
90
51
180
0
ARC
8
0
10
206.525
20
-14.455
40
0.5
50
0
51
90
0
ARC
8
0
10
193.525
20
-27.455
40
0.5
50
180
51
270
0
ARC
8
0
10
206.525
20
-27.455
40
0.5
50
270
51
0
0
LINE
8
0
10
98.275
20
-15.86
11
111.275
21
-15.86
0
LINE
8
0
10
98.275
20
-29.86
11
111.275
21
-29.86
0
LINE
8
0
10
97.775
20
-16.36
11
97.775
21
-29.36
0
LINE
8
0
10
111.775
20
-16.36
11
111.775
21
-29.36
0
ARC
8
0
10
98.275
20
-16.36
40
0.5
50
90
51
180
0
ARC
8
0
10
111.275
20
-16.36
40
0.5
50
0
51
90
0
ARC
8
0
10
98.275
20
-29.36
40
0.5
50
180
51
270
0
ARC
8
0
10
111.275
20
-29.36
40
0.5
50
270
51
0
0
LINE
8
0
10
174.475
20
-15.86
11
187.475
21
-15.86
0
LINE
8
0
10
174.475
20
-29.86
11
187.475
21
-29.86
0
LINE
8
0
10
173.975
20
-16.36
11
173.975
21
-29.36
0
LINE
8
0
10
187.975
20
-16.36
11
187.975
21
-29.36
0
ARC
8
0
10
174.475
20
-16.36
40
0.5
50
90
51
180
0
ARC
8
0
10
187.475
20
-16.36
40
0.5
50
0
51
90
0
ARC
8
0
10
174.475
20
-29.36
40
0.5
50
180
51
270
0
ARC
8
0
10
187.475
20
-29.36
40
0.5
50
270
51
0
0
LINE
8
0
10
22.075
20
-19.67
11
35.075
21
-19.67
0
LINE
8
0
10
22.075
20
-33.67
11
35.075
21
-33.67
0
LINE
8
0
10
21.575
20
-20.17
11
21.575
21
-33.17
0
LINE
8
0
10
35.575
20
-20.17
11
35.575
21
-33.17
0
ARC
8
0
10
22.075
20
-20.17
40
0.5
50
90
51
180
0
ARC
8
0
10
35.075
20
-20.17
40
0.5
50
0
51
90
0
ARC
8
0
10
22.075
20
-33.17
40
0.5
50
180
51
270
0
ARC
8
0
10
35.075
20
-33.17
40
0.5
50
270
51
0
0
LINE
8
0
10
250.675
20
-19.67
11
263.675
21
-19.67
0
LINE
8
0
10
250.675
20
-33.67
11
263.675
21
-33.67
0
LINE
8
0
10
250.175
20
-20.17
11
250.175
21
-33.17
0
LINE
8
0
10
264.175
20
-20.17
11
264.175
21
-33.17
0
ARC
8
0
10
250.675
20
-20.17
40
0.5
50
90
51
180
0
ARC
8
0
10
263.675
20
-20.17
40
0.5
50
0
51
90
0
ARC
8
0
10
250.675
20
-33.17
40
0.5
50
180
51
270
0
ARC
8
0
10
263.675
20
-33.17
40
0.5
50
270
51
0
0
LINE
8
0
10
3.025
20
-21.575
11
16.025
21
-21.575
0
LINE
8
0
10
3.025
20
-35.575
11
16.025
21
-35.575
0
LINE
8
0
10
2.525
20
-22.075
11
2.525
21
-35.075
0
LINE
8
0
10
16.525
20
-22.075
11
16.525
21
-35.075
0
ARC
8
0
10
3.025
20
-22.075
40
0.5
50
90
51
180
0
ARC
8
0
10
16.025
20
-22.075
40
0.5
50
0
51
90
0
ARC
8
0
10
3.025
20
-35.075
40
0.5
50
180
51
270
0
ARC
8
0
10
16.025
20
-35.075
40
0.5
50
270
51
0
0
LINE
8
0
10
60.175
20
-21.575
11
73.175
21
-21.575
0
LINE
8
0
10
60.175
20
-35.575
11
73.175
21
-35.575
0
LINE
8
0
10
59.675
20
-22.075
11
59.675
21
-35.075
0
LINE
8
0
10
73.675
20
-22.075
11
73.675
21
-35.075
0
ARC
8
0
10
60.175
20
-22.075
40
0.5
50
90
51
180
0
ARC
8
0
10
73.175
20
-22.075
40
0.5
50
0
51
90
0
ARC
8
0
10
60.175
20
-35.075
40
0.5
50
180
51
270
0
ARC
8
0
10
73.175
20
-35.075
40
0.5
50
270
51
0
0
LINE
8
0
10
212.575
20
-21.575
11
225.575
21
-21.575
0
LINE
8
0
10
212.575
20
-35.575
11
225.575
21
-35.575
0
LINE
8
0
10
212.075
20
-22.075
11
212.075
21
-35.075
0
LINE
8
0
10
226.075
20
-22.075
11
226.075
21
-35.075
0
ARC
8
0
10
212.575
20
-22.075
40
0.5
50
90
51
180
0
ARC
8
0
10
225.575
20
-22.075
40
0.5
50
0
51
90
0
ARC
8
0
10
212.575
20
-35.075
40
0.5
50
180
51
270
0
ARC
8
0
10
225.575
20
-35.075
40
0.5
50
270
51
0
0
LINE
8
0
10
269.725
20
-21.575
11
282.725
21
-21.575
0
LINE
8
0
10
269.725
20
-35.575
11
282.725
21
-35.575
0
LINE
8
0
10
269.225
20
-22.075
11
269.225
21
-35.075
0
LINE
8
0
10
283.225
20
-22.075
11
283.225
21
-35.075
0
ARC
8
0
10
269.725
20
-22.075
40
0.5
50
90
51
180
0
ARC
8
0
10
282.725
20
-22.075
40
0.5
50
0
51
90
0
ARC
8
0
10
269.725
20
-35.075
40
0.5
50
180
51
270
0
ARC
8
0
10
282.725
20
-35.075
40
0.5
50
270
51
0
0
LINE
8
0
10
41.125
20
-29.195
11
54.125
21
-29.195
0
LINE
8
0
10
41.125
20
-43.195
11
54.125
21
-43.195
0
LINE
8
0
10
40.625
20
-29.695
11
40.625
21
-42.695
0
LINE
8
0
10
54.625
20
-29.695
11
54.625
21
-42.695
0
ARC
8
0
10
41.125
20
-29.695
40
0.5
50
90
51
180
0
ARC
8
0
10
54.125
20
-29.695
40
0.5
50
0
51
90
0
ARC
8
0
10
41.125
20
-42.695
40
0.5
50
180
51
270
0
ARC
8
0
10
54.125
20
-42.695
40
0.5
50
270
51
0
0
LINE
8
0
10
231.625
20
-29.195
11
244.625
21
-29.195
0
LINE
8
0
10
231.625
20
-43.195
11
244.625
21
-43.195
0
LINE
8
0
10
231.125
20
-29.695
11
231.125
21
-42.695
0
LINE
8
0
10
245.125
20
-29.695
11
245.125
21
-42.695
0
ARC
8
0
10
231.625
20
-29.695
40
0.5
50
90
51
180
0
ARC
8
0
10
244.625
20
-29.695
40
0.5
50
0
51
90
0
ARC
8
0
10
231.625
20
-42.695
40
0.5
50
180
51
270
0
ARC
8
0
10
244.625
20
-42.695
40
0.5
50
270
51
0
0
LINE
8
0
10
79.225
20
-33.005
11
92.225
21
-33.005
0
LINE
8
0
10
79.225
20
-47.005
11
92.225
21
-47.005
0
LINE
8
0
10
78.725
20
-33.505
11
78.725
21
-46.505
0
LINE
8
0
10
92.725
20
-33.505
11
92.725
21
-46.505
0
ARC
8
0
10
79.225
20
-33.505
40
0.5
50
90
51
180
0
ARC
8
0
10
92.225
20
-33.505
40
0.5
50
0
51
90
0
ARC
8
0
10
79.225
20
-46.505
40
0.5
50
180
51
270
0
ARC
8
0
10
92.225
20
-46.505
40
0.5
50
270
51
0
0
LINE
8
0
10
193.525
20
-33.005
11
206.525
21
-33.005
0
LINE
8
0
10
193.525
20
-47.005
11
206.525
21
-47.005
0
LINE
8
0
10
193.025
20
-33.505
11
193.025
21
-46.505
0
LINE
8
0
10
207.025
20
-33.505
11
207.025
21
-46.505
0
ARC
8
0
10
193.525
20
-33.505
40
0.5
50
90
51
180
0
ARC
8
0
10
206.525
20
-33.505
40
0.5
50
0
51
90
0
ARC
8
0
10
193.525
20
-46.505
40
0.5
50
180
51
270
0
ARC
8
0
10
206.525
20
-46.505
40
0.5
50
270
51
0
0
LINE
8
0
10
98.275
20
-34.91
11
111.275
21
-34.91
0
LINE
8
0
10
98.275
20
-48.91
11
111.275
21
-48.91
0
LINE
8
0
10
97.775
20
-35.41
11
97.775
21
-48.41
0
LINE
8
0
10
111.775
20
-35.41
11
111.775
21
-48.41
0
ARC
8
0
10
98.275
20
-35.41
40
0.5
50
90
51
180
0
ARC
8
0
10
111.275
20
-35.41
40
0.5
50
0
51
90
0
ARC
8
0
10
98.275
20
-48.41
40
0.5
50
180
51
270
0
ARC
8
0
10
111.275
20
-48.41
40
0.5
50
270
51
0
0
LINE
8
0
10
174.475
20
-34.91
11
187.475
21
-34.91
0
LINE
8
0
10
174.475
20
-48.91
11
187.475
21
-48.91
0
LINE
8
0
10
173.975
20
-35.41
11
173.975
21
-48.41
0
LINE
8
0
10
187.975
20
-35.41
11
187.975
21
-48.41
0
ARC
8
0
10
174.475
20
-35.41
40
0.5
50
90
51
180
0
ARC
8
0
10
187.475
20
-35.41
40
0.5
50
0
51
90
0
ARC
8
0
10
174.475
20
-48.41
40
0.5
50
180
51
270
0
ARC
8
0
10
187.475
20
-48.41
40
0.5
50
270
51
0
0
LINE
8
0
10
22.075
20
-38.72
11
35.075
21
-38.72
0
LINE
8
0
10
22.075
20
-52.72
11
35.075
21
-52.72
0
LINE
8
0
10
21.575
20
-39.22
11
21.575
21
-52.22
0
LINE
8
0
10
35.575
20
-39.22
11
35.575
21
-52.22
0
ARC
8
0
10
22.075
20
-39.22
40
0.5
50
90
51
180
0
ARC
8
0
10
35.075
20
-39.22
40
0.5
50
0
51
90
0
ARC
8
0
10
22.075
20
-52.22
40
0.5
50
180
51
270
0
ARC
8
0
10
35.075
20
-52.22
40
0.5
50
270
51
0
0
LINE
8
0
10
250.675
20
-38.72
11
263.675
21
-38.72
0
LINE
8
0
10
250.675
20
-52.72
11
263.675
21
-52.72
0
LINE
8
0
10
250.175
20
-39.22
11
250.175
21
-52.22
0
LINE
8
0
10
264.175
20
-39.22
11
264.175
21
-52.22
0
ARC
8
0
10
250.675
20
-39.22
40
0.5
50
90
51
180
0
ARC
8
0
10
263.675
20
-39.22
40
0.5
50
0
51
90
0
ARC
8
0
10
250.675
20
-52.22
40
0.5
50
180
51
270
0
ARC
8
0
10
263.675
20
-52.22
40
0.5
50
270
51
0
0
LINE
8
0
10
3.025
20
-40.625
11
16.025
21
-40.625
0
LINE
8
0
10
3.025
20
-54.625
11
16.025
21
-54.625
0
LINE
8
0
10
2.525
20
-41.125
11
2.525
21
-54.125
0
LINE
8
0
10
16.525
20
-41.125
11
16.525
21
-54.125
0
ARC
8
0
10
3.025
20
-41.125
40
0.5
50
90
51
180
0
ARC
8
0
10
16.025
20
-41.125
40
0.5
50
0
51
90
0
ARC
8
0
10
3.025
20
-54.125
40
0.5
50
180
51
270
0
ARC
8
0
10
16.025
20
-54.125
40
0.5
50
270
51
0
0
LINE
8
0
10
60.175
20
-40.625
11
73.175
21
-40.625
0
LINE
8
0
10
60.175
20
-54.625
11
73.175
21
-54.625
0
LINE
8
0
10
59.675
20
-41.125
11
59.675
21
-54.125
0
LINE
8
0
10
73.675
20
-41.125
11
73.675
21
-54.125
0
ARC
8
0
10
60.175
20
-41.125
40
0.5
50
90
51
180
0
ARC
8
0
10
73.175
20
-41.125
40
0.5
50
0
51
90
0
ARC
8
0
10
60.175
20
-54.125
40
0.5
50
180
51
270
0
ARC
8
0
10
73.175
20
-54.125
40
0.5
50
270
51
0
0
LINE
8
0
10
212.575
20
-40.625
11
225.575
21
-40.625
0
LINE
8
0
10
212.575
20
-54.625
11
225.575
21
-54.625
0
LINE
8
0
10
212.075
20
-41.125
11
212.075
21
-54.125
0
LINE
8
0
10
226.075
20
-41.125
11
226.075
21
-54.125
0
ARC
8
0
10
212.575
20
-41.125
40
0.5
50
90
51
180
0
ARC
8
0
10
225.575
20
-41.125
40
0.5
50
0
51
90
0
ARC
8
0
10
212.575
20
-54.125
40
0.5
50
180
51
270
0
ARC
8
0
10
225.575
20
-54.125
40
0.5
50
270
51
0
0
LINE
8
0
10
269.725
20
-40.625
11
282.725
21
-40.625
0
LINE
8
0
10
269.725
20
-54.625
11
282.725
21
-54.625
0
LINE
8
0
10
269.225
20
-41.125
11
269.225
21
-54.125
0
LINE
8
0
10
283.225
20
-41.125
11
283.225
21
-54.125
0
ARC
8
0
10
269.725
20
-41.125
40
0.5
50
90
51
180
0
ARC
8
0
10
282.725
20
-41.125
40
0.5
50
0
51
90
0
ARC
8
0
10
269.725
20
-54.125
40
0.5
50
180
51
270
0
ARC
8
0
10
282.725
20
-54.125
40
0.5
50
270
51
0
0
LINE
8
0
10
41.125
20
-48.245
11
54.125
21
-48.245
0
LINE
8
0
10
41.125
20
-62.245
11
54.125
21
-62.245
0
LINE
8
0
10
40.625
20
-48.745
11
40.625
21
-61.745
0
LINE
8
0
10
54.625
20
-48.745
11
54.625
21
-61.745
0
ARC
8
0
10
41.125
20
-48.745
40
0.5
50
90
51
180
0
ARC
8
0
10
54.125
20
-48.745
40
0.5
50
0
51
90
0
ARC
8
0
10
41.125
20
-61.745
40
0.5
50
180
51
270
0
ARC
8
0
10
54.125
20
-61.745
40
0.5
50
270
51
0
0
LINE
8
0
10
231.625
20
-48.245
11
244.625
21
-48.245
0
LINE
8
0
10
231.625
20
-62.245
11
244.625
21
-62.245
0
LINE
8
0
10
231.125
20
-48.745
11
231.125
21
-61.745
0
LINE
8
0
10
245.125
20
-48.745
11
245.125
21
-61.745
0
ARC
8
0
10
231.625
20
-48.745
40
0.5
50
90
51
180
0
ARC
8
0
10
244.625
20
-48.745
40
0.5
50
0
51
90
0
ARC
8
0
10
231.625
20
-61.745
40
0.5
50
180
51
270
0
ARC
8
0
10
244.625
20
-61.745
40
0.5
50
270
51
0
0
LINE
8
0
10
79.225
20
-52.055
11
92.225
21
-52.055
0
LINE
8
0
10
79.225
20
-66.055
11
92.225
21
-66.055
0
LINE
8
0
10
78.725
20
-52.555
11
78.725
21
-65.555
0
LINE
8
0
10
92.725
20
-52.555
11
92.725
21
-65.555
0
ARC
8
0
10
79.225
20
-52.555
40
0.5
50
90
51
180
0
ARC
8
0
10
92.225
20
-52.555
40
0.5
50
0
51
90
0
ARC
8
0
10
79.225
20
-65.555
40
0.5
50
180
51
270
0
ARC
8
0
10
92.225
20
-65.555
40
0.5
50
270
51
0
0
LINE
8
0
10
193.525
20
-52.055
11
206.525
21
-52.055
0
LINE
8
0
10
193.525
20
-66.055
11
206.525
21
-66.055
0
LINE
8
0
10
193.025
20
-52.555
11
193.025
21
-65.555
0
LINE
8
0
10
207.025
20
-52.555
11
207.025
21
-65.555
0
ARC
8
0
10
193.525
20
-52.555
40
0.5
50
90
51
180
0
ARC
8
0
10
206.525
20
-52.555
40
0.5
50
0
51
90
0
ARC
8
0
10
193.525
20
-65.555
40
0.5
50
180
51
270
0
ARC
8
0
10
206.525
20
-65.555
40
0.5
50
270
51
0
0
LINE
8
0
10
98.275
20
-53.96
11
111.275
21
-53.96
0
LINE
8
0
10
98.275
20
-67.96
11
111.275
21
-67.96
0
LINE
8
0
10
97.775
20
-54.46
11
97.775
21
-67.46
0
LINE
8
0
10
111.775
20
-54.46
11
111.775
21
-67.46
0
ARC
8
0
10
98.275
20
-54.46
40
0.5
50
90
51
180
0
ARC
8
0
10
111.275
20
-54.46
40
0.5
50
0
51
90
0
ARC
8
0
10
98.275
20
-67.46
40
0.5
50
180
51
270
0
ARC
8
0
10
111.275
20
-67.46
40
0.5
50
270
51
0
0
LINE
8
0
10
174.475
20
-53.96
11
187.475
21
-53.96
0
LINE
8
0
10
174.475
20
-67.96
11
187.475
21
-67.96
0
LINE
8
0
10
173.975
20
-54.46
11
173.975
21
-67.46
0
LINE
8
0
10
187.975
20
-54.46
11
187.975
21
-67.46
0
ARC
8
0
10
174.475
20
-54.46
40
0.5
50
90
51
180
0
ARC
8
0
10
187.475
20
-54.46
40
0.5
50
0
51
90
0
ARC
8
0
10
174.475
20
-67.46
40
0.5
50
180
51
270
0
ARC
8
0
10
187.475
20
-67.46
40
0.5
50
270
51
0
0
LINE
8
0
10
22.075
20
-57.77
11
35.075
21
-57.77
0
LINE
8
0
10
22.075
20
-71.77
11
35.075
21
-71.77
0
LINE
8
0
10
21.575
20
-58.27
11
21.575
21
-71.27
0
LINE
8
0
10
35.575
20
-58.27
11
35.575
21
-71.27
0
ARC
8
0
10
22.075
20
-58.27
40
0.5
50
90
51
180
0
ARC
8
0
10
35.075
20
-58.27
40
0.5
50
0
51
90
0
ARC
8
0
10
22.075
20
-71.27
40
0.5
50
180
51
270
0
ARC
8
0
10
35.075
20
-71.27
40
0.5
50
270
51
0
0
LINE
8
0
10
250.675
20
-57.77
11
263.675
21
-57.77
0
LINE
8
0
10
250.675
20
-71.77
11
263.675
21
-71.77
0
LINE
8
0
10
250.175
20
-58.27
11
250.175
21
-71.27
0
LINE
8
0
10
264.175
20
-58.27
11
264.175
21
-71.27
0
ARC
8
0
10
250.675
20
-58.27
40
0.5
50
90
51
180
0
ARC
8
0
10
263.675
20
-58.27
40
0.5
50
0
51
90
0
ARC
8
0
10
250.675
20
-71.27
40
0.5
50
180
51
270
0
ARC
8
0
10
263.675
20
-71.27
40
0.5
50
270
51
0
0
LINE
8
0
10
3.025
20
-59.675
11
16.025
21
-59.675
0
LINE
8
0
10
3.025
20
-73.675
11
16.025
21
-73.675
0
LINE
8
0
10
2.525
20
-60.175
11
2.525
21
-73.175
0
LINE
8
0
10
16.525
20
-60.175
11
16.525
21
-73.175
0
ARC
8
0
10
3.025
20
-60.175
40
0.5
50
90
51
180
0
ARC
8
0
10
16.025
20
-60.175
40
0.5
50
0
51
90
0
ARC
8
0
10
3.025
20
-73.175
40
0.5
50
180
51
270
0
ARC
8
0
10
16.025
20
-73.175
40
0.5
50
270
51
0
0
LINE
8
0
10
269.725
20
-59.675
11
282.725
21
-59.675
0
LINE
8
0
10
269.725
20
-73.675
11
282.725
21
-73.675
0
LINE
8
0
10
269.225
20
-60.175
11
269.225
21
-73.175
0
LINE
8
0
10
283.225
20
-60.175
11
283.225
21
-73.175
0
ARC
8
0
10
269.725
20
-60.175
40
0.5
50
90
51
180
0
ARC
8
0
10
282.725
20
-60.175
40
0.5
50
0
51
90
0
ARC
8
0
10
269.725
20
-73.175
40
0.5
50
180
51
270
0
ARC
8
0
10
282.725
20
-73.175
40
0.5
50
270
51
0
0
LINE
8
0
10
72.5575
20
-73.9625
11
85.5575
21
-73.9625
0
LINE
8
0
10
72.5575
20
-87.9625
11
85.5575
21
-87.9625
0
LINE
8
0
10
72.0575
20
-74.4625
11
72.0575
21
-87.4625
0
LINE
8
0
10
86.0575
20
-74.4625
11
86.0575
21
-87.4625
0
ARC
8
0
10
72.5575
20
-74.4625
40
0.5
50
90
51
180
0
ARC
8
0
10
85.5575
20
-74.4625
40
0.5
50
0
51
90
0
ARC
8
0
10
72.5575
20
-87.4625
40
0.5
50
180
51
270
0
ARC
8
0
10
85.5575
20
-87.4625
40
0.5
50
270
51
0
0
LINE
8
0
10
200.1925
20
-73.9625
11
213.1925
21
-73.9625
0
LINE
8
0
10
200.1925
20
-87.9625
11
213.1925
21
-87.9625
0
LINE
8
0
10
199.6925
20
-74.4625
11
199.6925
21
-87.4625
0
LINE
8
0
10
213.6925
20
-74.4625
11
213.6925
21
-87.4625
0
ARC
8
0
10
200.1925
20
-74.4625
40
0.5
50
90
51
180
0
ARC
8
0
10
213.1925
20
-74.4625
40
0.5
50
0
51
90
0
ARC
8
0
10
200.1925
20
-87.4625
40
0.5
50
180
51
270
0
ARC
8
0
10
213.1925
20
-87.4625
40
0.5
50
270
51
0
0
LINE
8
0
10
96.4106617
20
-75.7168508
11
108.9676975
21
-79.0814984
0
LINE
8
0
10
92.7871951
20
-89.2398124
11
105.3442309
21
-92.60446
0
LINE
8
0
10
95.7982893
20
-76.0704042
11
92.4336417
21
-88.62744
0
LINE
8
0
10
109.3212509
20
-79.6938708
11
105.9566033
21
-92.2509066
0
ARC
8
0
10
96.2812522
20
-76.1998137
40
0.5
50
75
51
165
0
ARC
8
0
10
108.838288
20
-79.5644613
40
0.5
50
345
51
75
0
ARC
8
0
10
92.9166046
20
-88.7568495
40
0.5
50
165
51
255
0
ARC
8
0
10
105.4736404
20
-92.1214971
40
0.5
50
255
51
345
0
LINE
8
0
10
132.3373198
20
-85.6650939
11
125.8373198
21
-96.9234241
0
LINE
8
0
10
120.2129642
20
-78.6650939
11
113.7129642
21
-89.9234241
0
LINE
8
0
10
132.1543071
20
-84.9820812
11
120.8959769
21
-78.4820812
0
LINE
8
0
10
125.1543071
20
-97.1064368
11
113.8959769
21
-90.6064368
0
ARC
8
0
10
131.9043071
20
-85.4150939
40
0.5
50
330
51
60
0
ARC
8
0
10
125.4043071
20
-96.6734241
40
0.5
50
240
51
330
0
ARC
8
0
10
120.6459769
20
-78.9150939
40
0.5
50
60
51
150
0
ARC
8
0
10
114.1459769
20
-90.1734241
40
0.5
50
150
51
240
0
LINE
8
0
10
165.5370358
20
-78.6650939
11
172.0370358
21
-89.9234241
0
LINE
8
0
10
153.4126802
20
-85.6650939
11
159.9126802
21
-96.9234241
0
LINE
8
0
10
164.8540231
20
-78.4820812
11
153.5956929
21
-84.9820812
0
LINE
8
0
10
171.8540231
20
-90.6064368
11
160.5956929
21
-97.1064368
0
ARC
8
0
10
165.1040231
20
-78.9150939
40
0.5
50
30
51
120
0
ARC
8
0
10
171.6040231
20
-90.1734241
40
0.5
50
300
51
30
0
ARC
8
0
10
153.8456929
20
-85.4150939
40
0.5
50
120
51
210
0
ARC
8
0
10
160.3456929
20
-96.6734241
40
0.5
50
210
51
300
0
LINE
8
0
10
176.7823025
20
-79.0814984
11
189.3393383
21
-75.7168508
0
LINE
8
0
10
180.4057691
20
-92.60446
11
192.9628049
21
-89.2398124
0
LINE
8
0
10
176.4287491
20
-79.6938708
11
179.7933967
21
-92.2509066
0
LINE
8
0
10
189.9517107
20
-76.0704042
11
193.3163583
21
-88.62744
0
ARC
8
0
10
176.911712
20
-79.5644613
40
0.5
50
105
51
195
0
ARC
8
0
10
189.4687478
20
-76.1998137
40
0.5
50
15
51
105
0
ARC
8
0
10
180.2763596
20
-92.1214971
40
0.5
50
195
51
285
0
ARC
8
0
10
192.8333954
20
-88.7568495
40
0.5
50
285
51
15
0
LINE
8
0
10
0
20
-102.081759
11
285.75
21
-102.081759
0
LINE
8
0
10
0
20
0
11
285.75
21
0
0
LINE
8
0
10
0
20
-102.081759
11
0
21
0
0
LINE
8
0
10
285.75
20
-102.081759
11
285.75
21
0
0
ENDSEC
0
EOF